<svg xmlns="http://www.w3.org/2000/svg" xmlns:xlink="http://www.w3.org/1999/xlink" width="600" height="400" viewBox="0 0 2400 1600">
<defs>
  <clipPath id="clip610">
    <rect x="0" y="0" width="2400" height="1600"></rect>
  </clipPath>
</defs>
<path clip-path="url(#clip610)" d="M0 1600 L2400 1600 L2400 0 L0 0  Z" fill="#ffffff" fill-rule="evenodd" fill-opacity="1"></path>
<defs>
  <clipPath id="clip611">
    <rect x="480" y="0" width="1681" height="1600"></rect>
  </clipPath>
</defs>
<path clip-path="url(#clip610)" d="M235.283 1423.18 L2352.76 1423.18 L2352.76 123.472 L235.283 123.472  Z" fill="#ffffff" fill-rule="evenodd" fill-opacity="1"></path>
<defs>
  <clipPath id="clip612">
    <rect x="235" y="123" width="2118" height="1301"></rect>
  </clipPath>
</defs>
<polyline clip-path="url(#clip612)" style="stroke:#000000; stroke-linecap:round; stroke-linejoin:round; stroke-width:2; stroke-opacity:0.1; fill:none" points="354.472,1423.18 354.472,123.472 "></polyline>
<polyline clip-path="url(#clip612)" style="stroke:#000000; stroke-linecap:round; stroke-linejoin:round; stroke-width:2; stroke-opacity:0.1; fill:none" points="826.329,1423.18 826.329,123.472 "></polyline>
<polyline clip-path="url(#clip612)" style="stroke:#000000; stroke-linecap:round; stroke-linejoin:round; stroke-width:2; stroke-opacity:0.1; fill:none" points="1298.19,1423.18 1298.19,123.472 "></polyline>
<polyline clip-path="url(#clip612)" style="stroke:#000000; stroke-linecap:round; stroke-linejoin:round; stroke-width:2; stroke-opacity:0.1; fill:none" points="1770.04,1423.18 1770.04,123.472 "></polyline>
<polyline clip-path="url(#clip612)" style="stroke:#000000; stroke-linecap:round; stroke-linejoin:round; stroke-width:2; stroke-opacity:0.1; fill:none" points="2241.9,1423.18 2241.9,123.472 "></polyline>
<polyline clip-path="url(#clip612)" style="stroke:#000000; stroke-linecap:round; stroke-linejoin:round; stroke-width:2; stroke-opacity:0.1; fill:none" points="235.283,1318.19 2352.76,1318.19 "></polyline>
<polyline clip-path="url(#clip612)" style="stroke:#000000; stroke-linecap:round; stroke-linejoin:round; stroke-width:2; stroke-opacity:0.1; fill:none" points="235.283,1082.26 2352.76,1082.26 "></polyline>
<polyline clip-path="url(#clip612)" style="stroke:#000000; stroke-linecap:round; stroke-linejoin:round; stroke-width:2; stroke-opacity:0.1; fill:none" points="235.283,846.333 2352.76,846.333 "></polyline>
<polyline clip-path="url(#clip612)" style="stroke:#000000; stroke-linecap:round; stroke-linejoin:round; stroke-width:2; stroke-opacity:0.1; fill:none" points="235.283,610.405 2352.76,610.405 "></polyline>
<polyline clip-path="url(#clip612)" style="stroke:#000000; stroke-linecap:round; stroke-linejoin:round; stroke-width:2; stroke-opacity:0.1; fill:none" points="235.283,374.477 2352.76,374.477 "></polyline>
<polyline clip-path="url(#clip612)" style="stroke:#000000; stroke-linecap:round; stroke-linejoin:round; stroke-width:2; stroke-opacity:0.1; fill:none" points="235.283,138.548 2352.76,138.548 "></polyline>
<polyline clip-path="url(#clip610)" style="stroke:#000000; stroke-linecap:round; stroke-linejoin:round; stroke-width:4; stroke-opacity:1; fill:none" points="235.283,1423.18 2352.76,1423.18 "></polyline>
<polyline clip-path="url(#clip610)" style="stroke:#000000; stroke-linecap:round; stroke-linejoin:round; stroke-width:4; stroke-opacity:1; fill:none" points="354.472,1423.18 354.472,1404.28 "></polyline>
<polyline clip-path="url(#clip610)" style="stroke:#000000; stroke-linecap:round; stroke-linejoin:round; stroke-width:4; stroke-opacity:1; fill:none" points="826.329,1423.18 826.329,1404.28 "></polyline>
<polyline clip-path="url(#clip610)" style="stroke:#000000; stroke-linecap:round; stroke-linejoin:round; stroke-width:4; stroke-opacity:1; fill:none" points="1298.19,1423.18 1298.19,1404.28 "></polyline>
<polyline clip-path="url(#clip610)" style="stroke:#000000; stroke-linecap:round; stroke-linejoin:round; stroke-width:4; stroke-opacity:1; fill:none" points="1770.04,1423.18 1770.04,1404.28 "></polyline>
<polyline clip-path="url(#clip610)" style="stroke:#000000; stroke-linecap:round; stroke-linejoin:round; stroke-width:4; stroke-opacity:1; fill:none" points="2241.9,1423.18 2241.9,1404.28 "></polyline>
<path clip-path="url(#clip610)" d="M293.454 1468.75 L323.129 1468.75 L323.129 1472.69 L293.454 1472.69 L293.454 1468.75 Z" fill="#000000" fill-rule="nonzero" fill-opacity="1"></path><path clip-path="url(#clip610)" d="M343.801 1466.44 Q340.652 1466.44 338.801 1468.59 Q336.972 1470.74 336.972 1474.49 Q336.972 1478.22 338.801 1480.39 Q340.652 1482.55 343.801 1482.55 Q346.949 1482.55 348.777 1480.39 Q350.629 1478.22 350.629 1474.49 Q350.629 1470.74 348.777 1468.59 Q346.949 1466.44 343.801 1466.44 M353.083 1451.78 L353.083 1456.04 Q351.324 1455.21 349.518 1454.77 Q347.736 1454.33 345.977 1454.33 Q341.347 1454.33 338.893 1457.45 Q336.463 1460.58 336.115 1466.9 Q337.481 1464.89 339.541 1463.82 Q341.602 1462.73 344.078 1462.73 Q349.287 1462.73 352.296 1465.9 Q355.328 1469.05 355.328 1474.49 Q355.328 1479.82 352.18 1483.03 Q349.032 1486.25 343.801 1486.25 Q337.805 1486.25 334.634 1481.67 Q331.463 1477.06 331.463 1468.33 Q331.463 1460.14 335.352 1455.28 Q339.24 1450.39 345.791 1450.39 Q347.551 1450.39 349.333 1450.74 Q351.139 1451.09 353.083 1451.78 Z" fill="#000000" fill-rule="nonzero" fill-opacity="1"></path><path clip-path="url(#clip610)" d="M373.384 1454.1 Q369.773 1454.1 367.944 1457.66 Q366.138 1461.2 366.138 1468.33 Q366.138 1475.44 367.944 1479.01 Q369.773 1482.55 373.384 1482.55 Q377.018 1482.55 378.824 1479.01 Q380.652 1475.44 380.652 1468.33 Q380.652 1461.2 378.824 1457.66 Q377.018 1454.1 373.384 1454.1 M373.384 1450.39 Q379.194 1450.39 382.249 1455 Q385.328 1459.58 385.328 1468.33 Q385.328 1477.06 382.249 1481.67 Q379.194 1486.25 373.384 1486.25 Q367.574 1486.25 364.495 1481.67 Q361.439 1477.06 361.439 1468.33 Q361.439 1459.58 364.495 1455 Q367.574 1450.39 373.384 1450.39 Z" fill="#000000" fill-rule="nonzero" fill-opacity="1"></path><path clip-path="url(#clip610)" d="M403.546 1454.1 Q399.935 1454.1 398.106 1457.66 Q396.3 1461.2 396.3 1468.33 Q396.3 1475.44 398.106 1479.01 Q399.935 1482.55 403.546 1482.55 Q407.18 1482.55 408.985 1479.01 Q410.814 1475.44 410.814 1468.33 Q410.814 1461.2 408.985 1457.66 Q407.18 1454.1 403.546 1454.1 M403.546 1450.39 Q409.356 1450.39 412.411 1455 Q415.49 1459.58 415.49 1468.33 Q415.49 1477.06 412.411 1481.67 Q409.356 1486.25 403.546 1486.25 Q397.736 1486.25 394.657 1481.67 Q391.601 1477.06 391.601 1468.33 Q391.601 1459.58 394.657 1455 Q397.736 1450.39 403.546 1450.39 Z" fill="#000000" fill-rule="nonzero" fill-opacity="1"></path><path clip-path="url(#clip610)" d="M765.311 1468.75 L794.986 1468.75 L794.986 1472.69 L765.311 1472.69 L765.311 1468.75 Z" fill="#000000" fill-rule="nonzero" fill-opacity="1"></path><path clip-path="url(#clip610)" d="M817.926 1455.09 L806.12 1473.54 L817.926 1473.54 L817.926 1455.09 M816.699 1451.02 L822.579 1451.02 L822.579 1473.54 L827.509 1473.54 L827.509 1477.43 L822.579 1477.43 L822.579 1485.58 L817.926 1485.58 L817.926 1477.43 L802.324 1477.43 L802.324 1472.92 L816.699 1451.02 Z" fill="#000000" fill-rule="nonzero" fill-opacity="1"></path><path clip-path="url(#clip610)" d="M845.241 1454.1 Q841.63 1454.1 839.801 1457.66 Q837.995 1461.2 837.995 1468.33 Q837.995 1475.44 839.801 1479.01 Q841.63 1482.55 845.241 1482.55 Q848.875 1482.55 850.68 1479.01 Q852.509 1475.44 852.509 1468.33 Q852.509 1461.2 850.68 1457.66 Q848.875 1454.1 845.241 1454.1 M845.241 1450.39 Q851.051 1450.39 854.106 1455 Q857.185 1459.58 857.185 1468.33 Q857.185 1477.06 854.106 1481.67 Q851.051 1486.25 845.241 1486.25 Q839.43 1486.25 836.352 1481.67 Q833.296 1477.06 833.296 1468.33 Q833.296 1459.58 836.352 1455 Q839.43 1450.39 845.241 1450.39 Z" fill="#000000" fill-rule="nonzero" fill-opacity="1"></path><path clip-path="url(#clip610)" d="M875.403 1454.1 Q871.791 1454.1 869.963 1457.66 Q868.157 1461.2 868.157 1468.33 Q868.157 1475.44 869.963 1479.01 Q871.791 1482.55 875.403 1482.55 Q879.037 1482.55 880.842 1479.01 Q882.671 1475.44 882.671 1468.33 Q882.671 1461.2 880.842 1457.66 Q879.037 1454.1 875.403 1454.1 M875.403 1450.39 Q881.213 1450.39 884.268 1455 Q887.347 1459.58 887.347 1468.33 Q887.347 1477.06 884.268 1481.67 Q881.213 1486.25 875.403 1486.25 Q869.592 1486.25 866.514 1481.67 Q863.458 1477.06 863.458 1468.33 Q863.458 1459.58 866.514 1455 Q869.592 1450.39 875.403 1450.39 Z" fill="#000000" fill-rule="nonzero" fill-opacity="1"></path><path clip-path="url(#clip610)" d="M1237.17 1468.75 L1266.84 1468.75 L1266.84 1472.69 L1237.17 1472.69 L1237.17 1468.75 Z" fill="#000000" fill-rule="nonzero" fill-opacity="1"></path><path clip-path="url(#clip610)" d="M1280.96 1481.64 L1297.28 1481.64 L1297.28 1485.58 L1275.34 1485.58 L1275.34 1481.64 Q1278 1478.89 1282.58 1474.26 Q1287.19 1469.61 1288.37 1468.27 Q1290.62 1465.74 1291.5 1464.01 Q1292.4 1462.25 1292.4 1460.56 Q1292.4 1457.8 1290.45 1456.07 Q1288.53 1454.33 1285.43 1454.33 Q1283.23 1454.33 1280.78 1455.09 Q1278.35 1455.86 1275.57 1457.41 L1275.57 1452.69 Q1278.39 1451.55 1280.85 1450.97 Q1283.3 1450.39 1285.34 1450.39 Q1290.71 1450.39 1293.9 1453.08 Q1297.1 1455.77 1297.1 1460.26 Q1297.1 1462.39 1296.29 1464.31 Q1295.5 1466.2 1293.39 1468.8 Q1292.82 1469.47 1289.71 1472.69 Q1286.61 1475.88 1280.96 1481.64 Z" fill="#000000" fill-rule="nonzero" fill-opacity="1"></path><path clip-path="url(#clip610)" d="M1317.1 1454.1 Q1313.49 1454.1 1311.66 1457.66 Q1309.85 1461.2 1309.85 1468.33 Q1309.85 1475.44 1311.66 1479.01 Q1313.49 1482.55 1317.1 1482.55 Q1320.73 1482.55 1322.54 1479.01 Q1324.37 1475.44 1324.37 1468.33 Q1324.37 1461.2 1322.54 1457.66 Q1320.73 1454.1 1317.1 1454.1 M1317.1 1450.39 Q1322.91 1450.39 1325.96 1455 Q1329.04 1459.58 1329.04 1468.33 Q1329.04 1477.06 1325.96 1481.67 Q1322.91 1486.25 1317.1 1486.25 Q1311.29 1486.25 1308.21 1481.67 Q1305.15 1477.06 1305.15 1468.33 Q1305.15 1459.58 1308.21 1455 Q1311.29 1450.39 1317.1 1450.39 Z" fill="#000000" fill-rule="nonzero" fill-opacity="1"></path><path clip-path="url(#clip610)" d="M1347.26 1454.1 Q1343.65 1454.1 1341.82 1457.66 Q1340.01 1461.2 1340.01 1468.33 Q1340.01 1475.44 1341.82 1479.01 Q1343.65 1482.55 1347.26 1482.55 Q1350.89 1482.55 1352.7 1479.01 Q1354.53 1475.44 1354.53 1468.33 Q1354.53 1461.2 1352.7 1457.66 Q1350.89 1454.1 1347.26 1454.1 M1347.26 1450.39 Q1353.07 1450.39 1356.13 1455 Q1359.2 1459.58 1359.2 1468.33 Q1359.2 1477.06 1356.13 1481.67 Q1353.07 1486.25 1347.26 1486.25 Q1341.45 1486.25 1338.37 1481.67 Q1335.31 1477.06 1335.31 1468.33 Q1335.31 1459.58 1338.37 1455 Q1341.45 1450.39 1347.26 1450.39 Z" fill="#000000" fill-rule="nonzero" fill-opacity="1"></path><path clip-path="url(#clip610)" d="M1770.04 1454.1 Q1766.43 1454.1 1764.6 1457.66 Q1762.8 1461.2 1762.8 1468.33 Q1762.8 1475.44 1764.6 1479.01 Q1766.43 1482.55 1770.04 1482.55 Q1773.68 1482.55 1775.48 1479.01 Q1777.31 1475.44 1777.31 1468.33 Q1777.31 1461.2 1775.48 1457.66 Q1773.68 1454.1 1770.04 1454.1 M1770.04 1450.39 Q1775.85 1450.39 1778.91 1455 Q1781.99 1459.58 1781.99 1468.33 Q1781.99 1477.06 1778.91 1481.67 Q1775.85 1486.25 1770.04 1486.25 Q1764.23 1486.25 1761.15 1481.67 Q1758.1 1477.06 1758.1 1468.33 Q1758.1 1459.58 1761.15 1455 Q1764.23 1450.39 1770.04 1450.39 Z" fill="#000000" fill-rule="nonzero" fill-opacity="1"></path><path clip-path="url(#clip610)" d="M2205.59 1481.64 L2221.91 1481.64 L2221.91 1485.58 L2199.97 1485.58 L2199.97 1481.64 Q2202.63 1478.89 2207.21 1474.26 Q2211.82 1469.61 2213 1468.27 Q2215.24 1465.74 2216.12 1464.01 Q2217.03 1462.25 2217.03 1460.56 Q2217.03 1457.8 2215.08 1456.07 Q2213.16 1454.33 2210.06 1454.33 Q2207.86 1454.33 2205.41 1455.09 Q2202.98 1455.86 2200.2 1457.41 L2200.2 1452.69 Q2203.02 1451.55 2205.48 1450.97 Q2207.93 1450.39 2209.97 1450.39 Q2215.34 1450.39 2218.53 1453.08 Q2221.73 1455.77 2221.73 1460.26 Q2221.73 1462.39 2220.92 1464.31 Q2220.13 1466.2 2218.02 1468.8 Q2217.44 1469.47 2214.34 1472.69 Q2211.24 1475.88 2205.59 1481.64 Z" fill="#000000" fill-rule="nonzero" fill-opacity="1"></path><path clip-path="url(#clip610)" d="M2241.73 1454.1 Q2238.11 1454.1 2236.29 1457.66 Q2234.48 1461.2 2234.48 1468.33 Q2234.48 1475.44 2236.29 1479.01 Q2238.11 1482.55 2241.73 1482.55 Q2245.36 1482.55 2247.17 1479.01 Q2248.99 1475.44 2248.99 1468.33 Q2248.99 1461.2 2247.17 1457.66 Q2245.36 1454.1 2241.73 1454.1 M2241.73 1450.39 Q2247.54 1450.39 2250.59 1455 Q2253.67 1459.58 2253.67 1468.33 Q2253.67 1477.06 2250.59 1481.67 Q2247.54 1486.25 2241.73 1486.25 Q2235.92 1486.25 2232.84 1481.67 Q2229.78 1477.06 2229.78 1468.33 Q2229.78 1459.58 2232.84 1455 Q2235.92 1450.39 2241.73 1450.39 Z" fill="#000000" fill-rule="nonzero" fill-opacity="1"></path><path clip-path="url(#clip610)" d="M2271.89 1454.1 Q2268.28 1454.1 2266.45 1457.66 Q2264.64 1461.2 2264.64 1468.33 Q2264.64 1475.44 2266.45 1479.01 Q2268.28 1482.55 2271.89 1482.55 Q2275.52 1482.55 2277.33 1479.01 Q2279.16 1475.44 2279.16 1468.33 Q2279.16 1461.2 2277.33 1457.66 Q2275.52 1454.1 2271.89 1454.1 M2271.89 1450.39 Q2277.7 1450.39 2280.75 1455 Q2283.83 1459.58 2283.83 1468.33 Q2283.83 1477.06 2280.75 1481.67 Q2277.7 1486.25 2271.89 1486.25 Q2266.08 1486.25 2263 1481.67 Q2259.94 1477.06 2259.94 1468.33 Q2259.94 1459.58 2263 1455 Q2266.08 1450.39 2271.89 1450.39 Z" fill="#000000" fill-rule="nonzero" fill-opacity="1"></path><path clip-path="url(#clip610)" d="M1059.76 1520.52 L1066.67 1520.52 L1078.48 1538.19 L1090.35 1520.52 L1097.26 1520.52 L1081.98 1543.34 L1098.27 1568.04 L1091.37 1568.04 L1078 1547.83 L1064.54 1568.04 L1057.6 1568.04 L1074.56 1542.68 L1059.76 1520.52 Z" fill="#000000" fill-rule="nonzero" fill-opacity="1"></path><path clip-path="url(#clip610)" d="M1105.28 1543.28 L1111.77 1543.28 L1111.77 1523.83 L1104.67 1525.14 L1104.67 1521.45 L1111.99 1520.21 L1116.35 1520.21 L1116.35 1543.28 L1122.88 1543.28 L1122.88 1546.78 L1105.28 1546.78 L1105.28 1543.28 Z" fill="#000000" fill-rule="nonzero" fill-opacity="1"></path><path clip-path="url(#clip610)" d="M1159.99 1525.81 L1159.99 1543.66 L1168.07 1543.66 Q1172.56 1543.66 1175.01 1541.34 Q1177.46 1539.02 1177.46 1534.72 Q1177.46 1530.45 1175.01 1528.13 Q1172.56 1525.81 1168.07 1525.81 L1159.99 1525.81 M1153.56 1520.52 L1168.07 1520.52 Q1176.06 1520.52 1180.14 1524.15 Q1184.24 1527.75 1184.24 1534.72 Q1184.24 1541.75 1180.14 1545.35 Q1176.06 1548.95 1168.07 1548.95 L1159.99 1548.95 L1159.99 1568.04 L1153.56 1568.04 L1153.56 1520.52 Z" fill="#000000" fill-rule="nonzero" fill-opacity="1"></path><path clip-path="url(#clip610)" d="M1204.1 1536.5 Q1199.39 1536.5 1196.66 1540.19 Q1193.92 1543.85 1193.92 1550.25 Q1193.92 1556.65 1196.62 1560.34 Q1199.36 1564 1204.1 1564 Q1208.78 1564 1211.52 1560.31 Q1214.26 1556.62 1214.26 1550.25 Q1214.26 1543.92 1211.52 1540.23 Q1208.78 1536.5 1204.1 1536.5 M1204.1 1531.54 Q1211.74 1531.54 1216.1 1536.5 Q1220.46 1541.47 1220.46 1550.25 Q1220.46 1559 1216.1 1564 Q1211.74 1568.97 1204.1 1568.97 Q1196.43 1568.97 1192.07 1564 Q1187.74 1559 1187.74 1550.25 Q1187.74 1541.47 1192.07 1536.5 Q1196.43 1531.54 1204.1 1531.54 Z" fill="#000000" fill-rule="nonzero" fill-opacity="1"></path><path clip-path="url(#clip610)" d="M1252.9 1533.45 L1252.9 1538.98 Q1250.41 1537.71 1247.74 1537.07 Q1245.07 1536.44 1242.2 1536.44 Q1237.84 1536.44 1235.65 1537.77 Q1233.48 1539.11 1233.48 1541.79 Q1233.48 1543.82 1235.04 1545 Q1236.6 1546.15 1241.31 1547.2 L1243.32 1547.64 Q1249.55 1548.98 1252.16 1551.43 Q1254.81 1553.85 1254.81 1558.21 Q1254.81 1563.17 1250.86 1566.07 Q1246.94 1568.97 1240.07 1568.97 Q1237.21 1568.97 1234.09 1568.39 Q1231 1567.85 1227.56 1566.74 L1227.56 1560.69 Q1230.81 1562.38 1233.96 1563.24 Q1237.11 1564.07 1240.2 1564.07 Q1244.34 1564.07 1246.56 1562.66 Q1248.79 1561.23 1248.79 1558.65 Q1248.79 1556.27 1247.17 1554.99 Q1245.58 1553.72 1240.13 1552.54 L1238.1 1552.07 Q1232.65 1550.92 1230.23 1548.56 Q1227.82 1546.18 1227.82 1542.04 Q1227.82 1537.01 1231.38 1534.27 Q1234.95 1531.54 1241.5 1531.54 Q1244.75 1531.54 1247.61 1532.01 Q1250.48 1532.49 1252.9 1533.45 Z" fill="#000000" fill-rule="nonzero" fill-opacity="1"></path><path clip-path="url(#clip610)" d="M1264.13 1532.4 L1269.99 1532.4 L1269.99 1568.04 L1264.13 1568.04 L1264.13 1532.4 M1264.13 1518.52 L1269.99 1518.52 L1269.99 1525.93 L1264.13 1525.93 L1264.13 1518.52 Z" fill="#000000" fill-rule="nonzero" fill-opacity="1"></path><path clip-path="url(#clip610)" d="M1288.04 1522.27 L1288.04 1532.4 L1300.1 1532.4 L1300.1 1536.95 L1288.04 1536.95 L1288.04 1556.3 Q1288.04 1560.66 1289.21 1561.9 Q1290.42 1563.14 1294.08 1563.14 L1300.1 1563.14 L1300.1 1568.04 L1294.08 1568.04 Q1287.3 1568.04 1284.73 1565.53 Q1282.15 1562.98 1282.15 1556.3 L1282.15 1536.95 L1277.85 1536.95 L1277.85 1532.4 L1282.15 1532.4 L1282.15 1522.27 L1288.04 1522.27 Z" fill="#000000" fill-rule="nonzero" fill-opacity="1"></path><path clip-path="url(#clip610)" d="M1307.8 1532.4 L1313.66 1532.4 L1313.66 1568.04 L1307.8 1568.04 L1307.8 1532.4 M1307.8 1518.52 L1313.66 1518.52 L1313.66 1525.93 L1307.8 1525.93 L1307.8 1518.52 Z" fill="#000000" fill-rule="nonzero" fill-opacity="1"></path><path clip-path="url(#clip610)" d="M1339.73 1536.5 Q1335.01 1536.5 1332.28 1540.19 Q1329.54 1543.85 1329.54 1550.25 Q1329.54 1556.65 1332.25 1560.34 Q1334.98 1564 1339.73 1564 Q1344.4 1564 1347.14 1560.31 Q1349.88 1556.62 1349.88 1550.25 Q1349.88 1543.92 1347.14 1540.23 Q1344.4 1536.5 1339.73 1536.5 M1339.73 1531.54 Q1347.36 1531.54 1351.72 1536.5 Q1356.09 1541.47 1356.09 1550.25 Q1356.09 1559 1351.72 1564 Q1347.36 1568.97 1339.73 1568.97 Q1332.05 1568.97 1327.69 1564 Q1323.37 1559 1323.37 1550.25 Q1323.37 1541.47 1327.69 1536.5 Q1332.05 1531.54 1339.73 1531.54 Z" fill="#000000" fill-rule="nonzero" fill-opacity="1"></path><path clip-path="url(#clip610)" d="M1395.43 1546.53 L1395.43 1568.04 L1389.57 1568.04 L1389.57 1546.72 Q1389.57 1541.66 1387.6 1539.14 Q1385.62 1536.63 1381.68 1536.63 Q1376.93 1536.63 1374.2 1539.65 Q1371.46 1542.68 1371.46 1547.9 L1371.46 1568.04 L1365.57 1568.04 L1365.57 1532.4 L1371.46 1532.4 L1371.46 1537.93 Q1373.56 1534.72 1376.39 1533.13 Q1379.26 1531.54 1382.98 1531.54 Q1389.12 1531.54 1392.27 1535.36 Q1395.43 1539.14 1395.43 1546.53 Z" fill="#000000" fill-rule="nonzero" fill-opacity="1"></path><path clip-path="url(#clip610)" d="M1441.89 1518.58 Q1437.63 1525.9 1435.56 1533.06 Q1433.49 1540.23 1433.49 1547.58 Q1433.49 1554.93 1435.56 1562.16 Q1437.66 1569.35 1441.89 1576.64 L1436.8 1576.64 Q1432.03 1569.16 1429.64 1561.93 Q1427.29 1554.71 1427.29 1547.58 Q1427.29 1540.48 1429.64 1533.29 Q1432 1526.09 1436.8 1518.58 L1441.89 1518.58 Z" fill="#000000" fill-rule="nonzero" fill-opacity="1"></path><path clip-path="url(#clip610)" d="M1481.01 1539.24 Q1483.21 1535.29 1486.26 1533.41 Q1489.32 1531.54 1493.46 1531.54 Q1499.03 1531.54 1502.05 1535.45 Q1505.07 1539.33 1505.07 1546.53 L1505.07 1568.04 L1499.19 1568.04 L1499.19 1546.72 Q1499.19 1541.59 1497.37 1539.11 Q1495.56 1536.63 1491.83 1536.63 Q1487.28 1536.63 1484.64 1539.65 Q1482 1542.68 1482 1547.9 L1482 1568.04 L1476.11 1568.04 L1476.11 1546.72 Q1476.11 1541.56 1474.3 1539.11 Q1472.48 1536.63 1468.69 1536.63 Q1464.21 1536.63 1461.56 1539.68 Q1458.92 1542.71 1458.92 1547.9 L1458.92 1568.04 L1453.03 1568.04 L1453.03 1532.4 L1458.92 1532.4 L1458.92 1537.93 Q1460.93 1534.66 1463.73 1533.1 Q1466.53 1531.54 1470.38 1531.54 Q1474.26 1531.54 1476.97 1533.51 Q1479.71 1535.48 1481.01 1539.24 Z" fill="#000000" fill-rule="nonzero" fill-opacity="1"></path><path clip-path="url(#clip610)" d="M1515.83 1518.58 L1520.92 1518.58 Q1525.7 1526.09 1528.05 1533.29 Q1530.44 1540.48 1530.44 1547.58 Q1530.44 1554.71 1528.05 1561.93 Q1525.7 1569.16 1520.92 1576.64 L1515.83 1576.64 Q1520.07 1569.35 1522.13 1562.16 Q1524.24 1554.93 1524.24 1547.58 Q1524.24 1540.23 1522.13 1533.06 Q1520.07 1525.9 1515.83 1518.58 Z" fill="#000000" fill-rule="nonzero" fill-opacity="1"></path><polyline clip-path="url(#clip610)" style="stroke:#000000; stroke-linecap:round; stroke-linejoin:round; stroke-width:4; stroke-opacity:1; fill:none" points="235.283,1423.18 235.283,123.472 "></polyline>
<polyline clip-path="url(#clip610)" style="stroke:#000000; stroke-linecap:round; stroke-linejoin:round; stroke-width:4; stroke-opacity:1; fill:none" points="235.283,1318.19 254.18,1318.19 "></polyline>
<polyline clip-path="url(#clip610)" style="stroke:#000000; stroke-linecap:round; stroke-linejoin:round; stroke-width:4; stroke-opacity:1; fill:none" points="235.283,1082.26 254.18,1082.26 "></polyline>
<polyline clip-path="url(#clip610)" style="stroke:#000000; stroke-linecap:round; stroke-linejoin:round; stroke-width:4; stroke-opacity:1; fill:none" points="235.283,846.333 254.18,846.333 "></polyline>
<polyline clip-path="url(#clip610)" style="stroke:#000000; stroke-linecap:round; stroke-linejoin:round; stroke-width:4; stroke-opacity:1; fill:none" points="235.283,610.405 254.18,610.405 "></polyline>
<polyline clip-path="url(#clip610)" style="stroke:#000000; stroke-linecap:round; stroke-linejoin:round; stroke-width:4; stroke-opacity:1; fill:none" points="235.283,374.477 254.18,374.477 "></polyline>
<polyline clip-path="url(#clip610)" style="stroke:#000000; stroke-linecap:round; stroke-linejoin:round; stroke-width:4; stroke-opacity:1; fill:none" points="235.283,138.548 254.18,138.548 "></polyline>
<path clip-path="url(#clip610)" d="M187.338 1303.99 Q183.727 1303.99 181.899 1307.55 Q180.093 1311.1 180.093 1318.22 Q180.093 1325.33 181.899 1328.9 Q183.727 1332.44 187.338 1332.44 Q190.973 1332.44 192.778 1328.9 Q194.607 1325.33 194.607 1318.22 Q194.607 1311.1 192.778 1307.55 Q190.973 1303.99 187.338 1303.99 M187.338 1300.29 Q193.149 1300.29 196.204 1304.89 Q199.283 1309.48 199.283 1318.22 Q199.283 1326.95 196.204 1331.56 Q193.149 1336.14 187.338 1336.14 Q181.528 1336.14 178.45 1331.56 Q175.394 1326.95 175.394 1318.22 Q175.394 1309.48 178.45 1304.89 Q181.528 1300.29 187.338 1300.29 Z" fill="#000000" fill-rule="nonzero" fill-opacity="1"></path><path clip-path="url(#clip610)" d="M117.825 1095.61 L125.464 1095.61 L125.464 1069.24 L117.154 1070.91 L117.154 1066.65 L125.418 1064.98 L130.093 1064.98 L130.093 1095.61 L137.732 1095.61 L137.732 1099.54 L117.825 1099.54 L117.825 1095.61 Z" fill="#000000" fill-rule="nonzero" fill-opacity="1"></path><path clip-path="url(#clip610)" d="M157.177 1068.06 Q153.566 1068.06 151.737 1071.63 Q149.931 1075.17 149.931 1082.3 Q149.931 1089.4 151.737 1092.97 Q153.566 1096.51 157.177 1096.51 Q160.811 1096.51 162.616 1092.97 Q164.445 1089.4 164.445 1082.3 Q164.445 1075.17 162.616 1071.63 Q160.811 1068.06 157.177 1068.06 M157.177 1064.36 Q162.987 1064.36 166.042 1068.96 Q169.121 1073.55 169.121 1082.3 Q169.121 1091.02 166.042 1095.63 Q162.987 1100.21 157.177 1100.21 Q151.366 1100.21 148.288 1095.63 Q145.232 1091.02 145.232 1082.3 Q145.232 1073.55 148.288 1068.96 Q151.366 1064.36 157.177 1064.36 Z" fill="#000000" fill-rule="nonzero" fill-opacity="1"></path><path clip-path="url(#clip610)" d="M187.338 1068.06 Q183.727 1068.06 181.899 1071.63 Q180.093 1075.17 180.093 1082.3 Q180.093 1089.4 181.899 1092.97 Q183.727 1096.51 187.338 1096.51 Q190.973 1096.51 192.778 1092.97 Q194.607 1089.4 194.607 1082.3 Q194.607 1075.17 192.778 1071.63 Q190.973 1068.06 187.338 1068.06 M187.338 1064.36 Q193.149 1064.36 196.204 1068.96 Q199.283 1073.55 199.283 1082.3 Q199.283 1091.02 196.204 1095.63 Q193.149 1100.21 187.338 1100.21 Q181.528 1100.21 178.45 1095.63 Q175.394 1091.02 175.394 1082.3 Q175.394 1073.55 178.45 1068.96 Q181.528 1064.36 187.338 1064.36 Z" fill="#000000" fill-rule="nonzero" fill-opacity="1"></path><path clip-path="url(#clip610)" d="M121.043 859.678 L137.362 859.678 L137.362 863.613 L115.418 863.613 L115.418 859.678 Q118.08 856.924 122.663 852.294 Q127.269 847.641 128.45 846.299 Q130.695 843.776 131.575 842.039 Q132.478 840.28 132.478 838.59 Q132.478 835.836 130.533 834.1 Q128.612 832.364 125.51 832.364 Q123.311 832.364 120.857 833.127 Q118.427 833.891 115.649 835.442 L115.649 830.72 Q118.473 829.586 120.927 829.007 Q123.38 828.428 125.418 828.428 Q130.788 828.428 133.982 831.114 Q137.177 833.799 137.177 838.289 Q137.177 840.419 136.367 842.34 Q135.579 844.239 133.473 846.831 Q132.894 847.502 129.792 850.72 Q126.691 853.914 121.043 859.678 Z" fill="#000000" fill-rule="nonzero" fill-opacity="1"></path><path clip-path="url(#clip610)" d="M157.177 832.132 Q153.566 832.132 151.737 835.697 Q149.931 839.239 149.931 846.368 Q149.931 853.475 151.737 857.039 Q153.566 860.581 157.177 860.581 Q160.811 860.581 162.616 857.039 Q164.445 853.475 164.445 846.368 Q164.445 839.239 162.616 835.697 Q160.811 832.132 157.177 832.132 M157.177 828.428 Q162.987 828.428 166.042 833.035 Q169.121 837.618 169.121 846.368 Q169.121 855.095 166.042 859.701 Q162.987 864.285 157.177 864.285 Q151.366 864.285 148.288 859.701 Q145.232 855.095 145.232 846.368 Q145.232 837.618 148.288 833.035 Q151.366 828.428 157.177 828.428 Z" fill="#000000" fill-rule="nonzero" fill-opacity="1"></path><path clip-path="url(#clip610)" d="M187.338 832.132 Q183.727 832.132 181.899 835.697 Q180.093 839.239 180.093 846.368 Q180.093 853.475 181.899 857.039 Q183.727 860.581 187.338 860.581 Q190.973 860.581 192.778 857.039 Q194.607 853.475 194.607 846.368 Q194.607 839.239 192.778 835.697 Q190.973 832.132 187.338 832.132 M187.338 828.428 Q193.149 828.428 196.204 833.035 Q199.283 837.618 199.283 846.368 Q199.283 855.095 196.204 859.701 Q193.149 864.285 187.338 864.285 Q181.528 864.285 178.45 859.701 Q175.394 855.095 175.394 846.368 Q175.394 837.618 178.45 833.035 Q181.528 828.428 187.338 828.428 Z" fill="#000000" fill-rule="nonzero" fill-opacity="1"></path><path clip-path="url(#clip610)" d="M131.181 609.051 Q134.538 609.768 136.413 612.037 Q138.311 614.305 138.311 617.639 Q138.311 622.754 134.792 625.555 Q131.274 628.356 124.793 628.356 Q122.617 628.356 120.302 627.916 Q118.01 627.5 115.556 626.643 L115.556 622.129 Q117.501 623.264 119.816 623.842 Q122.13 624.421 124.654 624.421 Q129.052 624.421 131.343 622.685 Q133.658 620.949 133.658 617.639 Q133.658 614.583 131.505 612.87 Q129.376 611.134 125.556 611.134 L121.529 611.134 L121.529 607.292 L125.742 607.292 Q129.191 607.292 131.019 605.926 Q132.848 604.537 132.848 601.944 Q132.848 599.282 130.95 597.87 Q129.075 596.435 125.556 596.435 Q123.635 596.435 121.436 596.852 Q119.237 597.269 116.598 598.148 L116.598 593.981 Q119.26 593.241 121.575 592.87 Q123.913 592.5 125.973 592.5 Q131.297 592.5 134.399 594.931 Q137.501 597.338 137.501 601.458 Q137.501 604.329 135.857 606.319 Q134.214 608.287 131.181 609.051 Z" fill="#000000" fill-rule="nonzero" fill-opacity="1"></path><path clip-path="url(#clip610)" d="M157.177 596.204 Q153.566 596.204 151.737 599.768 Q149.931 603.31 149.931 610.44 Q149.931 617.546 151.737 621.111 Q153.566 624.653 157.177 624.653 Q160.811 624.653 162.616 621.111 Q164.445 617.546 164.445 610.44 Q164.445 603.31 162.616 599.768 Q160.811 596.204 157.177 596.204 M157.177 592.5 Q162.987 592.5 166.042 597.106 Q169.121 601.69 169.121 610.44 Q169.121 619.167 166.042 623.773 Q162.987 628.356 157.177 628.356 Q151.366 628.356 148.288 623.773 Q145.232 619.167 145.232 610.44 Q145.232 601.69 148.288 597.106 Q151.366 592.5 157.177 592.5 Z" fill="#000000" fill-rule="nonzero" fill-opacity="1"></path><path clip-path="url(#clip610)" d="M187.338 596.204 Q183.727 596.204 181.899 599.768 Q180.093 603.31 180.093 610.44 Q180.093 617.546 181.899 621.111 Q183.727 624.653 187.338 624.653 Q190.973 624.653 192.778 621.111 Q194.607 617.546 194.607 610.44 Q194.607 603.31 192.778 599.768 Q190.973 596.204 187.338 596.204 M187.338 592.5 Q193.149 592.5 196.204 597.106 Q199.283 601.69 199.283 610.44 Q199.283 619.167 196.204 623.773 Q193.149 628.356 187.338 628.356 Q181.528 628.356 178.45 623.773 Q175.394 619.167 175.394 610.44 Q175.394 601.69 178.45 597.106 Q181.528 592.5 187.338 592.5 Z" fill="#000000" fill-rule="nonzero" fill-opacity="1"></path><path clip-path="url(#clip610)" d="M129.862 361.271 L118.056 379.72 L129.862 379.72 L129.862 361.271 M128.635 357.197 L134.515 357.197 L134.515 379.72 L139.445 379.72 L139.445 383.608 L134.515 383.608 L134.515 391.757 L129.862 391.757 L129.862 383.608 L114.26 383.608 L114.26 379.095 L128.635 357.197 Z" fill="#000000" fill-rule="nonzero" fill-opacity="1"></path><path clip-path="url(#clip610)" d="M157.177 360.275 Q153.566 360.275 151.737 363.84 Q149.931 367.382 149.931 374.511 Q149.931 381.618 151.737 385.183 Q153.566 388.724 157.177 388.724 Q160.811 388.724 162.616 385.183 Q164.445 381.618 164.445 374.511 Q164.445 367.382 162.616 363.84 Q160.811 360.275 157.177 360.275 M157.177 356.572 Q162.987 356.572 166.042 361.178 Q169.121 365.761 169.121 374.511 Q169.121 383.238 166.042 387.845 Q162.987 392.428 157.177 392.428 Q151.366 392.428 148.288 387.845 Q145.232 383.238 145.232 374.511 Q145.232 365.761 148.288 361.178 Q151.366 356.572 157.177 356.572 Z" fill="#000000" fill-rule="nonzero" fill-opacity="1"></path><path clip-path="url(#clip610)" d="M187.338 360.275 Q183.727 360.275 181.899 363.84 Q180.093 367.382 180.093 374.511 Q180.093 381.618 181.899 385.183 Q183.727 388.724 187.338 388.724 Q190.973 388.724 192.778 385.183 Q194.607 381.618 194.607 374.511 Q194.607 367.382 192.778 363.84 Q190.973 360.275 187.338 360.275 M187.338 356.572 Q193.149 356.572 196.204 361.178 Q199.283 365.761 199.283 374.511 Q199.283 383.238 196.204 387.845 Q193.149 392.428 187.338 392.428 Q181.528 392.428 178.45 387.845 Q175.394 383.238 175.394 374.511 Q175.394 365.761 178.45 361.178 Q181.528 356.572 187.338 356.572 Z" fill="#000000" fill-rule="nonzero" fill-opacity="1"></path><path clip-path="url(#clip610)" d="M117.061 121.268 L135.417 121.268 L135.417 125.203 L121.343 125.203 L121.343 133.676 Q122.362 133.328 123.38 133.166 Q124.399 132.981 125.418 132.981 Q131.205 132.981 134.584 136.152 Q137.964 139.324 137.964 144.74 Q137.964 150.319 134.492 153.421 Q131.019 156.499 124.7 156.499 Q122.524 156.499 120.255 156.129 Q118.01 155.759 115.603 155.018 L115.603 150.319 Q117.686 151.453 119.908 152.009 Q122.13 152.564 124.607 152.564 Q128.612 152.564 130.95 150.458 Q133.288 148.351 133.288 144.74 Q133.288 141.129 130.95 139.023 Q128.612 136.916 124.607 136.916 Q122.732 136.916 120.857 137.333 Q119.006 137.75 117.061 138.629 L117.061 121.268 Z" fill="#000000" fill-rule="nonzero" fill-opacity="1"></path><path clip-path="url(#clip610)" d="M157.177 124.347 Q153.566 124.347 151.737 127.912 Q149.931 131.453 149.931 138.583 Q149.931 145.689 151.737 149.254 Q153.566 152.796 157.177 152.796 Q160.811 152.796 162.616 149.254 Q164.445 145.689 164.445 138.583 Q164.445 131.453 162.616 127.912 Q160.811 124.347 157.177 124.347 M157.177 120.643 Q162.987 120.643 166.042 125.25 Q169.121 129.833 169.121 138.583 Q169.121 147.31 166.042 151.916 Q162.987 156.499 157.177 156.499 Q151.366 156.499 148.288 151.916 Q145.232 147.31 145.232 138.583 Q145.232 129.833 148.288 125.25 Q151.366 120.643 157.177 120.643 Z" fill="#000000" fill-rule="nonzero" fill-opacity="1"></path><path clip-path="url(#clip610)" d="M187.338 124.347 Q183.727 124.347 181.899 127.912 Q180.093 131.453 180.093 138.583 Q180.093 145.689 181.899 149.254 Q183.727 152.796 187.338 152.796 Q190.973 152.796 192.778 149.254 Q194.607 145.689 194.607 138.583 Q194.607 131.453 192.778 127.912 Q190.973 124.347 187.338 124.347 M187.338 120.643 Q193.149 120.643 196.204 125.25 Q199.283 129.833 199.283 138.583 Q199.283 147.31 196.204 151.916 Q193.149 156.499 187.338 156.499 Q181.528 156.499 178.45 151.916 Q175.394 147.31 175.394 138.583 Q175.394 129.833 178.45 125.25 Q181.528 120.643 187.338 120.643 Z" fill="#000000" fill-rule="nonzero" fill-opacity="1"></path><path clip-path="url(#clip610)" d="M16.4842 1007.58 L16.4842 1000.68 L34.149 988.869 L16.4842 976.997 L16.4842 970.09 L39.3052 985.368 L64.0042 969.071 L64.0042 975.978 L43.793 989.346 L64.0042 1002.81 L64.0042 1009.75 L38.6368 992.784 L16.4842 1007.58 Z" fill="#000000" fill-rule="nonzero" fill-opacity="1"></path><path clip-path="url(#clip610)" d="M39.1142 958.504 L39.1142 945.009 L42.7427 945.009 L42.7427 964.043 L39.2416 964.043 Q38.2549 962.96 36.4725 960.955 Q26.7648 950.006 23.7729 950.006 Q21.6722 950.006 20.3991 951.661 Q19.0941 953.316 19.0941 956.022 Q19.0941 957.677 19.667 959.618 Q20.2081 961.56 21.3221 963.852 L17.4072 963.852 Q16.516 961.401 16.0704 959.3 Q15.6248 957.168 15.6248 955.353 Q15.6248 950.738 17.7255 947.969 Q19.8262 945.2 23.2636 945.2 Q27.6878 945.2 36.7271 955.735 Q38.2549 957.518 39.1142 958.504 Z" fill="#000000" fill-rule="nonzero" fill-opacity="1"></path><path clip-path="url(#clip610)" d="M21.7677 907.356 L39.6235 907.356 L39.6235 899.271 Q39.6235 894.784 37.3 892.333 Q34.9765 889.882 30.6797 889.882 Q26.4147 889.882 24.0912 892.333 Q21.7677 894.784 21.7677 899.271 L21.7677 907.356 M16.4842 913.785 L16.4842 899.271 Q16.4842 891.283 20.1126 887.208 Q23.7092 883.103 30.6797 883.103 Q37.7138 883.103 41.3104 887.208 Q44.907 891.283 44.907 899.271 L44.907 907.356 L64.0042 907.356 L64.0042 913.785 L16.4842 913.785 Z" fill="#000000" fill-rule="nonzero" fill-opacity="1"></path><path clip-path="url(#clip610)" d="M32.4621 863.242 Q32.4621 867.952 36.1542 870.689 Q39.8145 873.427 46.212 873.427 Q52.6095 873.427 56.3017 870.721 Q59.9619 867.984 59.9619 863.242 Q59.9619 858.563 56.2698 855.826 Q52.5777 853.088 46.212 853.088 Q39.8781 853.088 36.186 855.826 Q32.4621 858.563 32.4621 863.242 M27.4968 863.242 Q27.4968 855.603 32.4621 851.242 Q37.4273 846.882 46.212 846.882 Q54.9649 846.882 59.9619 851.242 Q64.9272 855.603 64.9272 863.242 Q64.9272 870.912 59.9619 875.273 Q54.9649 879.601 46.212 879.601 Q37.4273 879.601 32.4621 875.273 Q27.4968 870.912 27.4968 863.242 Z" fill="#000000" fill-rule="nonzero" fill-opacity="1"></path><path clip-path="url(#clip610)" d="M29.4065 814.448 L34.9447 814.448 Q33.6716 816.931 33.035 819.605 Q32.3984 822.278 32.3984 825.143 Q32.3984 829.503 33.7352 831.7 Q35.072 833.864 37.7456 833.864 Q39.7826 833.864 40.9603 832.304 Q42.1061 830.745 43.1565 826.034 L43.6021 824.029 Q44.9389 817.79 47.3897 815.181 Q49.8086 812.539 54.1691 812.539 Q59.1344 812.539 62.0308 816.485 Q64.9272 820.4 64.9272 827.275 Q64.9272 830.14 64.3543 833.259 Q63.8132 836.346 62.6992 839.784 L56.6518 839.784 Q58.3387 836.537 59.198 833.386 Q60.0256 830.235 60.0256 827.148 Q60.0256 823.01 58.6251 820.782 Q57.1929 818.554 54.6147 818.554 Q52.2276 818.554 50.9545 820.178 Q49.6813 821.769 48.5037 827.212 L48.0262 829.249 Q46.8804 834.691 44.5251 837.11 Q42.138 839.529 38.0002 839.529 Q32.9713 839.529 30.2341 835.965 Q27.4968 832.4 27.4968 825.843 Q27.4968 822.597 27.9743 819.732 Q28.4517 816.867 29.4065 814.448 Z" fill="#000000" fill-rule="nonzero" fill-opacity="1"></path><path clip-path="url(#clip610)" d="M28.3562 803.213 L28.3562 797.357 L64.0042 797.357 L64.0042 803.213 L28.3562 803.213 M14.479 803.213 L14.479 797.357 L21.895 797.357 L21.895 803.213 L14.479 803.213 Z" fill="#000000" fill-rule="nonzero" fill-opacity="1"></path><path clip-path="url(#clip610)" d="M18.2347 779.31 L28.3562 779.31 L28.3562 767.247 L32.9077 767.247 L32.9077 779.31 L52.2594 779.31 Q56.6199 779.31 57.8613 778.132 Q59.1026 776.923 59.1026 773.262 L59.1026 767.247 L64.0042 767.247 L64.0042 773.262 Q64.0042 780.042 61.4897 782.62 Q58.9434 785.198 52.2594 785.198 L32.9077 785.198 L32.9077 789.495 L28.3562 789.495 L28.3562 785.198 L18.2347 785.198 L18.2347 779.31 Z" fill="#000000" fill-rule="nonzero" fill-opacity="1"></path><path clip-path="url(#clip610)" d="M28.3562 759.544 L28.3562 753.688 L64.0042 753.688 L64.0042 759.544 L28.3562 759.544 M14.479 759.544 L14.479 753.688 L21.895 753.688 L21.895 759.544 L14.479 759.544 Z" fill="#000000" fill-rule="nonzero" fill-opacity="1"></path><path clip-path="url(#clip610)" d="M32.4621 727.62 Q32.4621 732.331 36.1542 735.068 Q39.8145 737.805 46.212 737.805 Q52.6095 737.805 56.3017 735.1 Q59.9619 732.363 59.9619 727.62 Q59.9619 722.941 56.2698 720.204 Q52.5777 717.467 46.212 717.467 Q39.8781 717.467 36.186 720.204 Q32.4621 722.941 32.4621 727.62 M27.4968 727.62 Q27.4968 719.981 32.4621 715.621 Q37.4273 711.26 46.212 711.26 Q54.9649 711.26 59.9619 715.621 Q64.9272 719.981 64.9272 727.62 Q64.9272 735.291 59.9619 739.651 Q54.9649 743.98 46.212 743.98 Q37.4273 743.98 32.4621 739.651 Q27.4968 735.291 27.4968 727.62 Z" fill="#000000" fill-rule="nonzero" fill-opacity="1"></path><path clip-path="url(#clip610)" d="M42.4881 671.92 L64.0042 671.92 L64.0042 677.777 L42.679 677.777 Q37.6183 677.777 35.1038 679.75 Q32.5894 681.723 32.5894 685.67 Q32.5894 690.413 35.6131 693.15 Q38.6368 695.887 43.8567 695.887 L64.0042 695.887 L64.0042 701.775 L28.3562 701.775 L28.3562 695.887 L33.8944 695.887 Q30.6797 693.786 29.0883 690.954 Q27.4968 688.089 27.4968 684.365 Q27.4968 678.222 31.3163 675.071 Q35.1038 671.92 42.4881 671.92 Z" fill="#000000" fill-rule="nonzero" fill-opacity="1"></path><path clip-path="url(#clip610)" d="M14.5426 625.451 Q21.8632 629.716 29.0246 631.784 Q36.186 633.853 43.5384 633.853 Q50.8908 633.853 58.1159 631.784 Q65.3091 629.684 72.5979 625.451 L72.5979 630.543 Q65.1182 635.317 57.8931 637.705 Q50.668 640.06 43.5384 640.06 Q36.4406 640.06 29.2474 637.705 Q22.0542 635.349 14.5426 630.543 L14.5426 625.451 Z" fill="#000000" fill-rule="nonzero" fill-opacity="1"></path><path clip-path="url(#clip610)" d="M35.1993 586.333 Q31.2526 584.137 29.3747 581.082 Q27.4968 578.026 27.4968 573.888 Q27.4968 568.318 31.4117 565.295 Q35.2948 562.271 42.4881 562.271 L64.0042 562.271 L64.0042 568.159 L42.679 568.159 Q37.5546 568.159 35.072 569.973 Q32.5894 571.788 32.5894 575.512 Q32.5894 580.063 35.6131 582.705 Q38.6368 585.347 43.8567 585.347 L64.0042 585.347 L64.0042 591.235 L42.679 591.235 Q37.5228 591.235 35.072 593.049 Q32.5894 594.863 32.5894 598.651 Q32.5894 603.139 35.6449 605.781 Q38.6686 608.422 43.8567 608.422 L64.0042 608.422 L64.0042 614.311 L28.3562 614.311 L28.3562 608.422 L33.8944 608.422 Q30.616 606.417 29.0564 603.616 Q27.4968 600.815 27.4968 596.964 Q27.4968 593.081 29.4702 590.376 Q31.4436 587.638 35.1993 586.333 Z" fill="#000000" fill-rule="nonzero" fill-opacity="1"></path><path clip-path="url(#clip610)" d="M14.5426 551.513 L14.5426 546.42 Q22.0542 541.646 29.2474 539.291 Q36.4406 536.904 43.5384 536.904 Q50.668 536.904 57.8931 539.291 Q65.1182 541.646 72.5979 546.42 L72.5979 551.513 Q65.3091 547.28 58.1159 545.211 Q50.8908 543.11 43.5384 543.11 Q36.186 543.11 29.0246 545.211 Q21.8632 547.28 14.5426 551.513 Z" fill="#000000" fill-rule="nonzero" fill-opacity="1"></path><path clip-path="url(#clip610)" d="M445.699 14.0809 L445.699 22.0612 Q441.041 19.8332 436.909 18.7395 Q432.777 17.6457 428.929 17.6457 Q422.245 17.6457 418.599 20.2383 Q414.993 22.8309 414.993 27.611 Q414.993 31.6214 417.383 33.6873 Q419.814 35.7128 426.538 36.9686 L431.481 37.9813 Q440.636 39.7232 444.97 44.1387 Q449.345 48.5136 449.345 55.8863 Q449.345 64.6767 443.431 69.2137 Q437.557 73.7508 426.174 73.7508 Q421.88 73.7508 417.019 72.7785 Q412.198 71.8063 407.013 69.9024 L407.013 61.4765 Q411.996 64.2716 416.776 65.6895 Q421.556 67.1073 426.174 67.1073 Q433.182 67.1073 436.99 64.3527 Q440.798 61.598 440.798 56.4939 Q440.798 52.0379 438.043 49.5264 Q435.329 47.0148 429.091 45.759 L424.108 44.7868 Q414.953 42.9639 410.861 39.075 Q406.77 35.1862 406.77 28.2591 Q406.77 20.2383 412.401 15.6203 Q418.072 11.0023 427.997 11.0023 Q432.25 11.0023 436.666 11.7719 Q441.081 12.5416 445.699 14.0809 Z" fill="#000000" fill-rule="nonzero" fill-opacity="1"></path><path clip-path="url(#clip610)" d="M461.781 27.2059 L469.235 27.2059 L469.235 72.576 L461.781 72.576 L461.781 27.2059 M461.781 9.54393 L469.235 9.54393 L469.235 18.9825 L461.781 18.9825 L461.781 9.54393 Z" fill="#000000" fill-rule="nonzero" fill-opacity="1"></path><path clip-path="url(#clip610)" d="M520.155 35.9153 Q522.95 30.8922 526.839 28.5022 Q530.728 26.1121 535.994 26.1121 Q543.083 26.1121 546.931 31.0947 Q550.78 36.0368 550.78 45.1919 L550.78 72.576 L543.286 72.576 L543.286 45.4349 Q543.286 38.913 540.977 35.7533 Q538.668 32.5936 533.928 32.5936 Q528.135 32.5936 524.773 36.4419 Q521.411 40.2903 521.411 46.9338 L521.411 72.576 L513.916 72.576 L513.916 45.4349 Q513.916 38.8725 511.607 35.7533 Q509.298 32.5936 504.478 32.5936 Q498.766 32.5936 495.404 36.4824 Q492.042 40.3308 492.042 46.9338 L492.042 72.576 L484.547 72.576 L484.547 27.2059 L492.042 27.2059 L492.042 34.2544 Q494.594 30.082 498.158 28.0971 Q501.723 26.1121 506.625 26.1121 Q511.567 26.1121 515.01 28.6237 Q518.494 31.1352 520.155 35.9153 Z" fill="#000000" fill-rule="nonzero" fill-opacity="1"></path><path clip-path="url(#clip610)" d="M564.877 54.671 L564.877 27.2059 L572.331 27.2059 L572.331 54.3874 Q572.331 60.8284 574.842 64.0691 Q577.354 67.2693 582.377 67.2693 Q588.413 67.2693 591.896 63.421 Q595.421 59.5726 595.421 52.9291 L595.421 27.2059 L602.874 27.2059 L602.874 72.576 L595.421 72.576 L595.421 65.6084 Q592.707 69.7404 589.101 71.7658 Q585.536 73.7508 580.797 73.7508 Q572.979 73.7508 568.928 68.8897 Q564.877 64.0286 564.877 54.671 M583.633 26.1121 L583.633 26.1121 Z" fill="#000000" fill-rule="nonzero" fill-opacity="1"></path><path clip-path="url(#clip610)" d="M618.227 9.54393 L625.681 9.54393 L625.681 72.576 L618.227 72.576 L618.227 9.54393 Z" fill="#000000" fill-rule="nonzero" fill-opacity="1"></path><path clip-path="url(#clip610)" d="M661.896 49.7694 Q652.863 49.7694 649.379 51.8354 Q645.895 53.9013 645.895 58.8839 Q645.895 62.8538 648.488 65.2034 Q651.121 67.5124 655.617 67.5124 Q661.815 67.5124 665.542 63.1374 Q669.309 58.7219 669.309 51.4303 L669.309 49.7694 L661.896 49.7694 M676.763 46.6907 L676.763 72.576 L669.309 72.576 L669.309 65.6895 Q666.757 69.8214 662.949 71.8063 Q659.141 73.7508 653.632 73.7508 Q646.665 73.7508 642.533 69.8619 Q638.441 65.9325 638.441 59.3701 Q638.441 51.7138 643.545 47.825 Q648.69 43.9361 658.858 43.9361 L669.309 43.9361 L669.309 43.2069 Q669.309 38.0623 665.906 35.2672 Q662.544 32.4315 656.427 32.4315 Q652.538 32.4315 648.852 33.3632 Q645.166 34.295 641.763 36.1584 L641.763 29.2718 Q645.854 27.692 649.703 26.9223 Q653.551 26.1121 657.197 26.1121 Q667.041 26.1121 671.902 31.2163 Q676.763 36.3204 676.763 46.6907 Z" fill="#000000" fill-rule="nonzero" fill-opacity="1"></path><path clip-path="url(#clip610)" d="M699.488 14.324 L699.488 27.2059 L714.841 27.2059 L714.841 32.9987 L699.488 32.9987 L699.488 57.6282 Q699.488 63.1779 700.987 64.7578 Q702.527 66.3376 707.185 66.3376 L714.841 66.3376 L714.841 72.576 L707.185 72.576 Q698.557 72.576 695.275 69.3758 Q691.994 66.1351 691.994 57.6282 L691.994 32.9987 L686.526 32.9987 L686.526 27.2059 L691.994 27.2059 L691.994 14.324 L699.488 14.324 Z" fill="#000000" fill-rule="nonzero" fill-opacity="1"></path><path clip-path="url(#clip610)" d="M763.452 48.0275 L763.452 51.6733 L729.182 51.6733 Q729.668 59.3701 733.8 63.421 Q737.972 67.4314 745.385 67.4314 Q749.679 67.4314 753.69 66.3781 Q757.74 65.3249 761.71 63.2184 L761.71 70.267 Q757.7 71.9684 753.487 72.8596 Q749.274 73.7508 744.94 73.7508 Q734.083 73.7508 727.723 67.4314 Q721.404 61.1119 721.404 50.3365 Q721.404 39.1965 727.399 32.6746 Q733.435 26.1121 743.643 26.1121 Q752.798 26.1121 758.105 32.0264 Q763.452 37.9003 763.452 48.0275 M755.999 45.84 Q755.918 39.7232 752.555 36.0774 Q749.234 32.4315 743.724 32.4315 Q737.486 32.4315 733.719 35.9558 Q729.992 39.4801 729.425 45.8805 L755.999 45.84 Z" fill="#000000" fill-rule="nonzero" fill-opacity="1"></path><path clip-path="url(#clip610)" d="M805.541 34.0924 L805.541 9.54393 L812.995 9.54393 L812.995 72.576 L805.541 72.576 L805.541 65.7705 Q803.192 69.8214 799.586 71.8063 Q796.021 73.7508 790.998 73.7508 Q782.775 73.7508 777.59 67.1883 Q772.445 60.6258 772.445 49.9314 Q772.445 39.2371 777.59 32.6746 Q782.775 26.1121 790.998 26.1121 Q796.021 26.1121 799.586 28.0971 Q803.192 30.0415 805.541 34.0924 M780.142 49.9314 Q780.142 58.1548 783.504 62.8538 Q786.907 67.5124 792.821 67.5124 Q798.736 67.5124 802.138 62.8538 Q805.541 58.1548 805.541 49.9314 Q805.541 41.7081 802.138 37.0496 Q798.736 32.3505 792.821 32.3505 Q786.907 32.3505 783.504 37.0496 Q780.142 41.7081 780.142 49.9314 Z" fill="#000000" fill-rule="nonzero" fill-opacity="1"></path><path clip-path="url(#clip610)" d="M846.658 12.096 L897.821 12.096 L897.821 18.9825 L876.351 18.9825 L876.351 72.576 L868.128 72.576 L868.128 18.9825 L846.658 18.9825 L846.658 12.096 Z" fill="#000000" fill-rule="nonzero" fill-opacity="1"></path><path clip-path="url(#clip610)" d="M912.282 49.7694 Q903.249 49.7694 899.765 51.8354 Q896.281 53.9013 896.281 58.8839 Q896.281 62.8538 898.874 65.2034 Q901.507 67.5124 906.004 67.5124 Q912.201 67.5124 915.928 63.1374 Q919.696 58.7219 919.696 51.4303 L919.696 49.7694 L912.282 49.7694 M927.149 46.6907 L927.149 72.576 L919.696 72.576 L919.696 65.6895 Q917.144 69.8214 913.336 71.8063 Q909.528 73.7508 904.019 73.7508 Q897.051 73.7508 892.919 69.8619 Q888.828 65.9325 888.828 59.3701 Q888.828 51.7138 893.932 47.825 Q899.076 43.9361 909.244 43.9361 L919.696 43.9361 L919.696 43.2069 Q919.696 38.0623 916.293 35.2672 Q912.931 32.4315 906.814 32.4315 Q902.925 32.4315 899.239 33.3632 Q895.552 34.295 892.149 36.1584 L892.149 29.2718 Q896.241 27.692 900.089 26.9223 Q903.938 26.1121 907.583 26.1121 Q917.427 26.1121 922.288 31.2163 Q927.149 36.3204 927.149 46.6907 Z" fill="#000000" fill-rule="nonzero" fill-opacity="1"></path><path clip-path="url(#clip610)" d="M968.793 34.1734 Q967.537 33.4443 966.038 33.1202 Q964.58 32.7556 962.797 32.7556 Q956.478 32.7556 953.075 36.8875 Q949.713 40.9789 949.713 48.6757 L949.713 72.576 L942.219 72.576 L942.219 27.2059 L949.713 27.2059 L949.713 34.2544 Q952.062 30.1225 955.83 28.1376 Q959.597 26.1121 964.985 26.1121 Q965.754 26.1121 966.686 26.2337 Q967.618 26.3147 968.752 26.5172 L968.793 34.1734 Z" fill="#000000" fill-rule="nonzero" fill-opacity="1"></path><path clip-path="url(#clip610)" d="M1005.01 49.3643 Q1005.01 41.2625 1001.65 36.8065 Q998.324 32.3505 992.288 32.3505 Q986.292 32.3505 982.93 36.8065 Q979.608 41.2625 979.608 49.3643 Q979.608 57.4256 982.93 61.8816 Q986.292 66.3376 992.288 66.3376 Q998.324 66.3376 1001.65 61.8816 Q1005.01 57.4256 1005.01 49.3643 M1012.46 66.9452 Q1012.46 78.5308 1007.32 84.1616 Q1002.17 89.8329 991.559 89.8329 Q987.629 89.8329 984.145 89.2252 Q980.662 88.6581 977.38 87.4428 L977.38 80.1917 Q980.662 81.9741 983.862 82.8248 Q987.062 83.6755 990.384 83.6755 Q997.716 83.6755 1001.36 79.8271 Q1005.01 76.0193 1005.01 68.282 L1005.01 64.5957 Q1002.7 68.6061 999.093 70.5911 Q995.488 72.576 990.465 72.576 Q982.12 72.576 977.016 66.2161 Q971.912 59.8562 971.912 49.3643 Q971.912 38.832 977.016 32.472 Q982.12 26.1121 990.465 26.1121 Q995.488 26.1121 999.093 28.0971 Q1002.7 30.082 1005.01 34.0924 L1005.01 27.2059 L1012.46 27.2059 L1012.46 66.9452 Z" fill="#000000" fill-rule="nonzero" fill-opacity="1"></path><path clip-path="url(#clip610)" d="M1066.62 48.0275 L1066.62 51.6733 L1032.35 51.6733 Q1032.84 59.3701 1036.97 63.421 Q1041.14 67.4314 1048.55 67.4314 Q1052.85 67.4314 1056.86 66.3781 Q1060.91 65.3249 1064.88 63.2184 L1064.88 70.267 Q1060.87 71.9684 1056.66 72.8596 Q1052.44 73.7508 1048.11 73.7508 Q1037.25 73.7508 1030.89 67.4314 Q1024.57 61.1119 1024.57 50.3365 Q1024.57 39.1965 1030.57 32.6746 Q1036.6 26.1121 1046.81 26.1121 Q1055.97 26.1121 1061.27 32.0264 Q1066.62 37.9003 1066.62 48.0275 M1059.17 45.84 Q1059.09 39.7232 1055.72 36.0774 Q1052.4 32.4315 1046.89 32.4315 Q1040.66 32.4315 1036.89 35.9558 Q1033.16 39.4801 1032.59 45.8805 L1059.17 45.84 Z" fill="#000000" fill-rule="nonzero" fill-opacity="1"></path><path clip-path="url(#clip610)" d="M1086.23 14.324 L1086.23 27.2059 L1101.58 27.2059 L1101.58 32.9987 L1086.23 32.9987 L1086.23 57.6282 Q1086.23 63.1779 1087.73 64.7578 Q1089.27 66.3376 1093.92 66.3376 L1101.58 66.3376 L1101.58 72.576 L1093.92 72.576 Q1085.3 72.576 1082.02 69.3758 Q1078.73 66.1351 1078.73 57.6282 L1078.73 32.9987 L1073.27 32.9987 L1073.27 27.2059 L1078.73 27.2059 L1078.73 14.324 L1086.23 14.324 Z" fill="#000000" fill-rule="nonzero" fill-opacity="1"></path><path clip-path="url(#clip610)" d="M1129.69 12.096 L1180.86 12.096 L1180.86 18.9825 L1159.39 18.9825 L1159.39 72.576 L1151.16 72.576 L1151.16 18.9825 L1129.69 18.9825 L1129.69 12.096 Z" fill="#000000" fill-rule="nonzero" fill-opacity="1"></path><path clip-path="url(#clip610)" d="M1202.53 34.1734 Q1201.27 33.4443 1199.78 33.1202 Q1198.32 32.7556 1196.53 32.7556 Q1190.21 32.7556 1186.81 36.8875 Q1183.45 40.9789 1183.45 48.6757 L1183.45 72.576 L1175.96 72.576 L1175.96 27.2059 L1183.45 27.2059 L1183.45 34.2544 Q1185.8 30.1225 1189.57 28.1376 Q1193.33 26.1121 1198.72 26.1121 Q1199.49 26.1121 1200.42 26.2337 Q1201.35 26.3147 1202.49 26.5172 L1202.53 34.1734 Z" fill="#000000" fill-rule="nonzero" fill-opacity="1"></path><path clip-path="url(#clip610)" d="M1230.97 49.7694 Q1221.93 49.7694 1218.45 51.8354 Q1214.97 53.9013 1214.97 58.8839 Q1214.97 62.8538 1217.56 65.2034 Q1220.19 67.5124 1224.69 67.5124 Q1230.89 67.5124 1234.61 63.1374 Q1238.38 58.7219 1238.38 51.4303 L1238.38 49.7694 L1230.97 49.7694 M1245.83 46.6907 L1245.83 72.576 L1238.38 72.576 L1238.38 65.6895 Q1235.83 69.8214 1232.02 71.8063 Q1228.21 73.7508 1222.7 73.7508 Q1215.74 73.7508 1211.6 69.8619 Q1207.51 65.9325 1207.51 59.3701 Q1207.51 51.7138 1212.62 47.825 Q1217.76 43.9361 1227.93 43.9361 L1238.38 43.9361 L1238.38 43.2069 Q1238.38 38.0623 1234.98 35.2672 Q1231.62 32.4315 1225.5 32.4315 Q1221.61 32.4315 1217.92 33.3632 Q1214.24 34.295 1210.83 36.1584 L1210.83 29.2718 Q1214.93 27.692 1218.77 26.9223 Q1222.62 26.1121 1226.27 26.1121 Q1236.11 26.1121 1240.97 31.2163 Q1245.83 36.3204 1245.83 46.6907 Z" fill="#000000" fill-rule="nonzero" fill-opacity="1"></path><path clip-path="url(#clip610)" d="M1261.19 27.2059 L1268.64 27.2059 L1268.64 73.3862 Q1268.64 82.0551 1265.32 85.944 Q1262.04 89.8329 1254.71 89.8329 L1251.87 89.8329 L1251.87 83.5134 L1253.85 83.5134 Q1258.11 83.5134 1259.65 81.5285 Q1261.19 79.5841 1261.19 73.3862 L1261.19 27.2059 M1261.19 9.54393 L1268.64 9.54393 L1268.64 18.9825 L1261.19 18.9825 L1261.19 9.54393 Z" fill="#000000" fill-rule="nonzero" fill-opacity="1"></path><path clip-path="url(#clip610)" d="M1323.04 48.0275 L1323.04 51.6733 L1288.77 51.6733 Q1289.26 59.3701 1293.39 63.421 Q1297.56 67.4314 1304.98 67.4314 Q1309.27 67.4314 1313.28 66.3781 Q1317.33 65.3249 1321.3 63.2184 L1321.3 70.267 Q1317.29 71.9684 1313.08 72.8596 Q1308.87 73.7508 1304.53 73.7508 Q1293.68 73.7508 1287.32 67.4314 Q1281 61.1119 1281 50.3365 Q1281 39.1965 1286.99 32.6746 Q1293.03 26.1121 1303.24 26.1121 Q1312.39 26.1121 1317.7 32.0264 Q1323.04 37.9003 1323.04 48.0275 M1315.59 45.84 Q1315.51 39.7232 1312.15 36.0774 Q1308.83 32.4315 1303.32 32.4315 Q1297.08 32.4315 1293.31 35.9558 Q1289.58 39.4801 1289.02 45.8805 L1315.59 45.84 Z" fill="#000000" fill-rule="nonzero" fill-opacity="1"></path><path clip-path="url(#clip610)" d="M1367.93 28.9478 L1367.93 35.9153 Q1364.77 34.1734 1361.57 33.3227 Q1358.41 32.4315 1355.17 32.4315 Q1347.92 32.4315 1343.91 37.0496 Q1339.9 41.6271 1339.9 49.9314 Q1339.9 58.2358 1343.91 62.8538 Q1347.92 67.4314 1355.17 67.4314 Q1358.41 67.4314 1361.57 66.5807 Q1364.77 65.6895 1367.93 63.9476 L1367.93 70.8341 Q1364.81 72.2924 1361.45 73.0216 Q1358.12 73.7508 1354.36 73.7508 Q1344.11 73.7508 1338.07 67.3098 Q1332.04 60.8689 1332.04 49.9314 Q1332.04 38.832 1338.11 32.472 Q1344.23 26.1121 1354.84 26.1121 Q1358.29 26.1121 1361.57 26.8413 Q1364.85 27.5299 1367.93 28.9478 Z" fill="#000000" fill-rule="nonzero" fill-opacity="1"></path><path clip-path="url(#clip610)" d="M1388.26 14.324 L1388.26 27.2059 L1403.62 27.2059 L1403.62 32.9987 L1388.26 32.9987 L1388.26 57.6282 Q1388.26 63.1779 1389.76 64.7578 Q1391.3 66.3376 1395.96 66.3376 L1403.62 66.3376 L1403.62 72.576 L1395.96 72.576 Q1387.33 72.576 1384.05 69.3758 Q1380.77 66.1351 1380.77 57.6282 L1380.77 32.9987 L1375.3 32.9987 L1375.3 27.2059 L1380.77 27.2059 L1380.77 14.324 L1388.26 14.324 Z" fill="#000000" fill-rule="nonzero" fill-opacity="1"></path><path clip-path="url(#clip610)" d="M1431 32.4315 Q1425.01 32.4315 1421.52 37.1306 Q1418.04 41.7891 1418.04 49.9314 Q1418.04 58.0738 1421.48 62.7728 Q1424.96 67.4314 1431 67.4314 Q1436.96 67.4314 1440.44 62.7323 Q1443.92 58.0333 1443.92 49.9314 Q1443.92 41.8701 1440.44 37.1711 Q1436.96 32.4315 1431 32.4315 M1431 26.1121 Q1440.72 26.1121 1446.27 32.4315 Q1451.82 38.7509 1451.82 49.9314 Q1451.82 61.0714 1446.27 67.4314 Q1440.72 73.7508 1431 73.7508 Q1421.24 73.7508 1415.69 67.4314 Q1410.18 61.0714 1410.18 49.9314 Q1410.18 38.7509 1415.69 32.4315 Q1421.24 26.1121 1431 26.1121 Z" fill="#000000" fill-rule="nonzero" fill-opacity="1"></path><path clip-path="url(#clip610)" d="M1490.47 34.1734 Q1489.21 33.4443 1487.71 33.1202 Q1486.26 32.7556 1484.47 32.7556 Q1478.15 32.7556 1474.75 36.8875 Q1471.39 40.9789 1471.39 48.6757 L1471.39 72.576 L1463.89 72.576 L1463.89 27.2059 L1471.39 27.2059 L1471.39 34.2544 Q1473.74 30.1225 1477.51 28.1376 Q1481.27 26.1121 1486.66 26.1121 Q1487.43 26.1121 1488.36 26.2337 Q1489.29 26.3147 1490.43 26.5172 L1490.47 34.1734 Z" fill="#000000" fill-rule="nonzero" fill-opacity="1"></path><path clip-path="url(#clip610)" d="M1517.16 76.7889 Q1514 84.8907 1511.01 87.3618 Q1508.01 89.8329 1502.99 89.8329 L1497.03 89.8329 L1497.03 83.5945 L1501.41 83.5945 Q1504.48 83.5945 1506.19 82.1361 Q1507.89 80.6778 1509.95 75.2496 L1511.29 71.8468 L1492.94 27.2059 L1500.84 27.2059 L1515.02 62.6918 L1529.19 27.2059 L1537.09 27.2059 L1517.16 76.7889 Z" fill="#000000" fill-rule="nonzero" fill-opacity="1"></path><path clip-path="url(#clip610)" d="M1591.66 9.62495 Q1586.23 18.942 1583.6 28.0566 Q1580.97 37.1711 1580.97 46.5287 Q1580.97 55.8863 1583.6 65.0818 Q1586.27 74.2369 1591.66 83.5134 L1585.18 83.5134 Q1579.1 73.9938 1576.06 64.7983 Q1573.07 55.6027 1573.07 46.5287 Q1573.07 37.4952 1576.06 28.3401 Q1579.06 19.1851 1585.18 9.62495 L1591.66 9.62495 Z" fill="#000000" fill-rule="nonzero" fill-opacity="1"></path><path clip-path="url(#clip610)" d="M1641.45 35.9153 Q1644.24 30.8922 1648.13 28.5022 Q1652.02 26.1121 1657.28 26.1121 Q1664.37 26.1121 1668.22 31.0947 Q1672.07 36.0368 1672.07 45.1919 L1672.07 72.576 L1664.58 72.576 L1664.58 45.4349 Q1664.58 38.913 1662.27 35.7533 Q1659.96 32.5936 1655.22 32.5936 Q1649.43 32.5936 1646.06 36.4419 Q1642.7 40.2903 1642.7 46.9338 L1642.7 72.576 L1635.21 72.576 L1635.21 45.4349 Q1635.21 38.8725 1632.9 35.7533 Q1630.59 32.5936 1625.77 32.5936 Q1620.06 32.5936 1616.69 36.4824 Q1613.33 40.3308 1613.33 46.9338 L1613.33 72.576 L1605.84 72.576 L1605.84 27.2059 L1613.33 27.2059 L1613.33 34.2544 Q1615.88 30.082 1619.45 28.0971 Q1623.01 26.1121 1627.92 26.1121 Q1632.86 26.1121 1636.3 28.6237 Q1639.78 31.1352 1641.45 35.9153 Z" fill="#000000" fill-rule="nonzero" fill-opacity="1"></path><path clip-path="url(#clip610)" d="M1687.91 34.9026 L1739.84 34.9026 L1739.84 41.7081 L1687.91 41.7081 L1687.91 34.9026 M1687.91 51.4303 L1739.84 51.4303 L1739.84 58.3168 L1687.91 58.3168 L1687.91 51.4303 Z" fill="#000000" fill-rule="nonzero" fill-opacity="1"></path><path clip-path="url(#clip610)" d="M1758.92 65.6895 L1772.29 65.6895 L1772.29 19.5497 L1757.75 22.4663 L1757.75 15.0127 L1772.21 12.096 L1780.39 12.096 L1780.39 65.6895 L1793.76 65.6895 L1793.76 72.576 L1758.92 72.576 L1758.92 65.6895 Z" fill="#000000" fill-rule="nonzero" fill-opacity="1"></path><path clip-path="url(#clip610)" d="M1810.37 12.096 L1842.49 12.096 L1842.49 18.9825 L1817.86 18.9825 L1817.86 33.8088 Q1819.64 33.2012 1821.43 32.9176 Q1823.21 32.5936 1824.99 32.5936 Q1835.12 32.5936 1841.03 38.1433 Q1846.95 43.6931 1846.95 53.1722 Q1846.95 62.9348 1840.87 68.3631 Q1834.79 73.7508 1823.74 73.7508 Q1819.93 73.7508 1815.96 73.1026 Q1812.03 72.4545 1807.82 71.1582 L1807.82 62.9348 Q1811.46 64.9198 1815.35 65.892 Q1819.24 66.8642 1823.57 66.8642 Q1830.58 66.8642 1834.67 63.1779 Q1838.76 59.4916 1838.76 53.1722 Q1838.76 46.8528 1834.67 43.1664 Q1830.58 39.4801 1823.57 39.4801 Q1820.29 39.4801 1817.01 40.2093 Q1813.77 40.9384 1810.37 42.4778 L1810.37 12.096 Z" fill="#000000" fill-rule="nonzero" fill-opacity="1"></path><path clip-path="url(#clip610)" d="M1880.57 17.4837 Q1874.25 17.4837 1871.05 23.7221 Q1867.89 29.92 1867.89 42.3968 Q1867.89 54.833 1871.05 61.0714 Q1874.25 67.2693 1880.57 67.2693 Q1886.93 67.2693 1890.09 61.0714 Q1893.29 54.833 1893.29 42.3968 Q1893.29 29.92 1890.09 23.7221 Q1886.93 17.4837 1880.57 17.4837 M1880.57 11.0023 Q1890.74 11.0023 1896.09 19.0636 Q1901.47 27.0843 1901.47 42.3968 Q1901.47 57.6687 1896.09 65.73 Q1890.74 73.7508 1880.57 73.7508 Q1870.4 73.7508 1865.01 65.73 Q1859.67 57.6687 1859.67 42.3968 Q1859.67 27.0843 1865.01 19.0636 Q1870.4 11.0023 1880.57 11.0023 Z" fill="#000000" fill-rule="nonzero" fill-opacity="1"></path><path clip-path="url(#clip610)" d="M1970.1 28.5427 L1970.1 35.5912 Q1966.94 33.9709 1963.53 33.1607 Q1960.13 32.3505 1956.48 32.3505 Q1950.93 32.3505 1948.14 34.0519 Q1945.38 35.7533 1945.38 39.156 Q1945.38 41.7486 1947.37 43.2475 Q1949.35 44.7058 1955.35 46.0426 L1957.9 46.6097 Q1965.84 48.3111 1969.16 51.4303 Q1972.53 54.509 1972.53 60.0587 Q1972.53 66.3781 1967.5 70.0644 Q1962.52 73.7508 1953.77 73.7508 Q1950.12 73.7508 1946.15 73.0216 Q1942.22 72.3329 1937.85 70.9151 L1937.85 63.2184 Q1941.98 65.3654 1945.99 66.4591 Q1950 67.5124 1953.93 67.5124 Q1959.2 67.5124 1962.03 65.73 Q1964.87 63.9071 1964.87 60.6258 Q1964.87 57.5877 1962.8 55.9673 Q1960.78 54.3469 1953.85 52.8481 L1951.26 52.2405 Q1944.33 50.7821 1941.25 47.7845 Q1938.17 44.7463 1938.17 39.4801 Q1938.17 33.0797 1942.71 29.5959 Q1947.25 26.1121 1955.59 26.1121 Q1959.72 26.1121 1963.37 26.7198 Q1967.02 27.3274 1970.1 28.5427 Z" fill="#000000" fill-rule="nonzero" fill-opacity="1"></path><path clip-path="url(#clip610)" d="M1991.77 14.324 L1991.77 27.2059 L2007.12 27.2059 L2007.12 32.9987 L1991.77 32.9987 L1991.77 57.6282 Q1991.77 63.1779 1993.27 64.7578 Q1994.81 66.3376 1999.46 66.3376 L2007.12 66.3376 L2007.12 72.576 L1999.46 72.576 Q1990.84 72.576 1987.55 69.3758 Q1984.27 66.1351 1984.27 57.6282 L1984.27 32.9987 L1978.8 32.9987 L1978.8 27.2059 L1984.27 27.2059 L1984.27 14.324 L1991.77 14.324 Z" fill="#000000" fill-rule="nonzero" fill-opacity="1"></path><path clip-path="url(#clip610)" d="M2055.73 48.0275 L2055.73 51.6733 L2021.46 51.6733 Q2021.95 59.3701 2026.08 63.421 Q2030.25 67.4314 2037.66 67.4314 Q2041.96 67.4314 2045.97 66.3781 Q2050.02 65.3249 2053.99 63.2184 L2053.99 70.267 Q2049.98 71.9684 2045.77 72.8596 Q2041.55 73.7508 2037.22 73.7508 Q2026.36 73.7508 2020 67.4314 Q2013.68 61.1119 2013.68 50.3365 Q2013.68 39.1965 2019.68 32.6746 Q2025.71 26.1121 2035.92 26.1121 Q2045.08 26.1121 2050.38 32.0264 Q2055.73 37.9003 2055.73 48.0275 M2048.28 45.84 Q2048.2 39.7232 2044.83 36.0774 Q2041.51 32.4315 2036 32.4315 Q2029.76 32.4315 2026 35.9558 Q2022.27 39.4801 2021.7 45.8805 L2048.28 45.84 Z" fill="#000000" fill-rule="nonzero" fill-opacity="1"></path><path clip-path="url(#clip610)" d="M2075.18 65.7705 L2075.18 89.8329 L2067.68 89.8329 L2067.68 27.2059 L2075.18 27.2059 L2075.18 34.0924 Q2077.53 30.0415 2081.09 28.0971 Q2084.7 26.1121 2089.68 26.1121 Q2097.94 26.1121 2103.09 32.6746 Q2108.27 39.2371 2108.27 49.9314 Q2108.27 60.6258 2103.09 67.1883 Q2097.94 73.7508 2089.68 73.7508 Q2084.7 73.7508 2081.09 71.8063 Q2077.53 69.8214 2075.18 65.7705 M2100.53 49.9314 Q2100.53 41.7081 2097.13 37.0496 Q2093.77 32.3505 2087.85 32.3505 Q2081.94 32.3505 2078.54 37.0496 Q2075.18 41.7081 2075.18 49.9314 Q2075.18 58.1548 2078.54 62.8538 Q2081.94 67.5124 2087.85 67.5124 Q2093.77 67.5124 2097.13 62.8538 Q2100.53 58.1548 2100.53 49.9314 Z" fill="#000000" fill-rule="nonzero" fill-opacity="1"></path><path clip-path="url(#clip610)" d="M2149.55 28.5427 L2149.55 35.5912 Q2146.39 33.9709 2142.99 33.1607 Q2139.58 32.3505 2135.94 32.3505 Q2130.39 32.3505 2127.59 34.0519 Q2124.84 35.7533 2124.84 39.156 Q2124.84 41.7486 2126.82 43.2475 Q2128.81 44.7058 2134.8 46.0426 L2137.36 46.6097 Q2145.3 48.3111 2148.62 51.4303 Q2151.98 54.509 2151.98 60.0587 Q2151.98 66.3781 2146.96 70.0644 Q2141.97 73.7508 2133.22 73.7508 Q2129.58 73.7508 2125.61 73.0216 Q2121.68 72.3329 2117.3 70.9151 L2117.3 63.2184 Q2121.44 65.3654 2125.45 66.4591 Q2129.46 67.5124 2133.39 67.5124 Q2138.65 67.5124 2141.49 65.73 Q2144.32 63.9071 2144.32 60.6258 Q2144.32 57.5877 2142.26 55.9673 Q2140.23 54.3469 2133.31 52.8481 L2130.71 52.2405 Q2123.79 50.7821 2120.71 47.7845 Q2117.63 44.7463 2117.63 39.4801 Q2117.63 33.0797 2122.17 29.5959 Q2126.7 26.1121 2135.05 26.1121 Q2139.18 26.1121 2142.83 26.7198 Q2146.47 27.3274 2149.55 28.5427 Z" fill="#000000" fill-rule="nonzero" fill-opacity="1"></path><path clip-path="url(#clip610)" d="M2162.68 9.62495 L2169.16 9.62495 Q2175.23 19.1851 2178.23 28.3401 Q2181.27 37.4952 2181.27 46.5287 Q2181.27 55.6027 2178.23 64.7983 Q2175.23 73.9938 2169.16 83.5134 L2162.68 83.5134 Q2168.06 74.2369 2170.7 65.0818 Q2173.37 55.8863 2173.37 46.5287 Q2173.37 37.1711 2170.7 28.0566 Q2168.06 18.942 2162.68 9.62495 Z" fill="#000000" fill-rule="nonzero" fill-opacity="1"></path><polyline clip-path="url(#clip612)" style="stroke:#009af9; stroke-linecap:round; stroke-linejoin:round; stroke-width:4; stroke-opacity:1; fill:none" points="1759.83,1325.5 1761.02,1327.26 1758.04,1330.61 1751.28,1334.88 1741.21,1339.59 1728.52,1344.59 1715.71,1349.75 1704.67,1355.12 1694.01,1359.78 1681.77,1363.58 1667.19,1367.46 1650.51,1371.37 1631.85,1375.18 1610.84,1378.66 1587.41,1381.5 1563.07,1383.5 1539.28,1384.67 1517.19,1385 1497.89,1384.9 1481.28,1385.02 1466.84,1385.54 1454.33,1386.4 1442.63,1386.24 1430.71,1383.39 1418.53,1377.47 1405.93,1368.57 1393.17,1357.14 1380.51,1343.84 1368.86,1329.94 1358.95,1316.48 1350.51,1303.49 1343.62,1291.01 1338.63,1279.06 1335.6,1267.61 1334.44,1256.85 1335.33,1247.07 1338.44,1238.41 1342.58,1230.61 1345.45,1223.03 1346.07,1215.43 1345.77,1206.93 1345.79,1196.61 1345.15,1185.77 1343.65,1175.73 1341.02,1166.41 1337.11,1156.75 1332.66,1145.54 1327.68,1132.41 1322.36,1117.5 1316.7,1101.33 1310.83,1084.13 1305.03,1065.67 1299.62,1045.53 1295.09,1023.49 1291.38,999.272 1288.16,972.753 1285.16,944.188 1282.29,915.861 1279.46,889.107 1276.02,862.834 1271.79,836.632 1267.16,810.565 1262.23,785.174 1257.85,760.687 1254.89,736.917 1253.56,713.695 1253.21,690.952 1253.2,669.576 1253.56,650.473 1254.07,632.722 1254.72,615.268 1255.21,596.926 1255.32,576.479 1254.14,554.967 1250.85,533.623 1245.61,512.331 1238.57,490.797 1229.94,468.667 1219.66,445.594 1207.59,421.447 1193.89,396.485 1178.76,371.511 1161.76,347.147 1143.3,324.516 1124.61,304.388 1105.95,286.46 1087.28,270.727 1068.6,256.948 1049.83,244.91 1030.99,234.863 1012.24,227.005 993.737,221.283 975.631,217.238 956.823,213.251 937.078,209.12 917.405,206.12 898.947,203.615 882.497,200.85 867.923,197.991 855.175,194.986 844.304,191.869 835.767,188.898 829.934,186.171 827.017,183.487 827.097,180.621 829.962,177.361 835.397,173.408 843.467,168.511 853.152,163.973 863.306,161.248 873.782,160.256 884.616,160.929 896.062,163.714 908.079,169.026 920.47,174.88 933.122,178.898 946.111,180.328 959.754,178.652 974.119,174.101 988.771,169.369 1003.38,166.898 1017.8,166.657 1032.09,168.57 1046.59,173.012 1061.75,180.132 1077.61,189.666 1094.8,200.443 1113.05,210.517 1131.68,220.906 1150.94,233.328 1170.55,247.465 1190.17,263.14 1209.91,280.546 1229.72,300.102 1249.25,321.856 1268.52,345.63 1288.3,370.188 1309.15,394.124 1330.99,417.502 1353.79,440.884 1376.68,463.691 1399.03,485.035 1421.11,504.807 1443.34,523.059 1466.1,539.71 1489.18,554.189 1512.11,566.202 1534.57,575.722 1555.55,583.773 1574.06,591.415 1590.12,598.675 "></polyline>
<circle clip-path="url(#clip612)" cx="1759.83" cy="1325.5" r="7.2" fill="#009af9" fill-rule="evenodd" fill-opacity="1" stroke="#000000" stroke-opacity="1" stroke-width="3.2"></circle>
<circle clip-path="url(#clip612)" cx="1761.02" cy="1327.26" r="7.2" fill="#009af9" fill-rule="evenodd" fill-opacity="1" stroke="#000000" stroke-opacity="1" stroke-width="3.2"></circle>
<circle clip-path="url(#clip612)" cx="1758.04" cy="1330.61" r="7.2" fill="#009af9" fill-rule="evenodd" fill-opacity="1" stroke="#000000" stroke-opacity="1" stroke-width="3.2"></circle>
<circle clip-path="url(#clip612)" cx="1751.28" cy="1334.88" r="7.2" fill="#009af9" fill-rule="evenodd" fill-opacity="1" stroke="#000000" stroke-opacity="1" stroke-width="3.2"></circle>
<circle clip-path="url(#clip612)" cx="1741.21" cy="1339.59" r="7.2" fill="#009af9" fill-rule="evenodd" fill-opacity="1" stroke="#000000" stroke-opacity="1" stroke-width="3.2"></circle>
<circle clip-path="url(#clip612)" cx="1728.52" cy="1344.59" r="7.2" fill="#009af9" fill-rule="evenodd" fill-opacity="1" stroke="#000000" stroke-opacity="1" stroke-width="3.2"></circle>
<circle clip-path="url(#clip612)" cx="1715.71" cy="1349.75" r="7.2" fill="#009af9" fill-rule="evenodd" fill-opacity="1" stroke="#000000" stroke-opacity="1" stroke-width="3.2"></circle>
<circle clip-path="url(#clip612)" cx="1704.67" cy="1355.12" r="7.2" fill="#009af9" fill-rule="evenodd" fill-opacity="1" stroke="#000000" stroke-opacity="1" stroke-width="3.2"></circle>
<circle clip-path="url(#clip612)" cx="1694.01" cy="1359.78" r="7.2" fill="#009af9" fill-rule="evenodd" fill-opacity="1" stroke="#000000" stroke-opacity="1" stroke-width="3.2"></circle>
<circle clip-path="url(#clip612)" cx="1681.77" cy="1363.58" r="7.2" fill="#009af9" fill-rule="evenodd" fill-opacity="1" stroke="#000000" stroke-opacity="1" stroke-width="3.2"></circle>
<circle clip-path="url(#clip612)" cx="1667.19" cy="1367.46" r="7.2" fill="#009af9" fill-rule="evenodd" fill-opacity="1" stroke="#000000" stroke-opacity="1" stroke-width="3.2"></circle>
<circle clip-path="url(#clip612)" cx="1650.51" cy="1371.37" r="7.2" fill="#009af9" fill-rule="evenodd" fill-opacity="1" stroke="#000000" stroke-opacity="1" stroke-width="3.2"></circle>
<circle clip-path="url(#clip612)" cx="1631.85" cy="1375.18" r="7.2" fill="#009af9" fill-rule="evenodd" fill-opacity="1" stroke="#000000" stroke-opacity="1" stroke-width="3.2"></circle>
<circle clip-path="url(#clip612)" cx="1610.84" cy="1378.66" r="7.2" fill="#009af9" fill-rule="evenodd" fill-opacity="1" stroke="#000000" stroke-opacity="1" stroke-width="3.2"></circle>
<circle clip-path="url(#clip612)" cx="1587.41" cy="1381.5" r="7.2" fill="#009af9" fill-rule="evenodd" fill-opacity="1" stroke="#000000" stroke-opacity="1" stroke-width="3.2"></circle>
<circle clip-path="url(#clip612)" cx="1563.07" cy="1383.5" r="7.2" fill="#009af9" fill-rule="evenodd" fill-opacity="1" stroke="#000000" stroke-opacity="1" stroke-width="3.2"></circle>
<circle clip-path="url(#clip612)" cx="1539.28" cy="1384.67" r="7.2" fill="#009af9" fill-rule="evenodd" fill-opacity="1" stroke="#000000" stroke-opacity="1" stroke-width="3.2"></circle>
<circle clip-path="url(#clip612)" cx="1517.19" cy="1385" r="7.2" fill="#009af9" fill-rule="evenodd" fill-opacity="1" stroke="#000000" stroke-opacity="1" stroke-width="3.2"></circle>
<circle clip-path="url(#clip612)" cx="1497.89" cy="1384.9" r="7.2" fill="#009af9" fill-rule="evenodd" fill-opacity="1" stroke="#000000" stroke-opacity="1" stroke-width="3.2"></circle>
<circle clip-path="url(#clip612)" cx="1481.28" cy="1385.02" r="7.2" fill="#009af9" fill-rule="evenodd" fill-opacity="1" stroke="#000000" stroke-opacity="1" stroke-width="3.2"></circle>
<circle clip-path="url(#clip612)" cx="1466.84" cy="1385.54" r="7.2" fill="#009af9" fill-rule="evenodd" fill-opacity="1" stroke="#000000" stroke-opacity="1" stroke-width="3.2"></circle>
<circle clip-path="url(#clip612)" cx="1454.33" cy="1386.4" r="7.2" fill="#009af9" fill-rule="evenodd" fill-opacity="1" stroke="#000000" stroke-opacity="1" stroke-width="3.2"></circle>
<circle clip-path="url(#clip612)" cx="1442.63" cy="1386.24" r="7.2" fill="#009af9" fill-rule="evenodd" fill-opacity="1" stroke="#000000" stroke-opacity="1" stroke-width="3.2"></circle>
<circle clip-path="url(#clip612)" cx="1430.71" cy="1383.39" r="7.2" fill="#009af9" fill-rule="evenodd" fill-opacity="1" stroke="#000000" stroke-opacity="1" stroke-width="3.2"></circle>
<circle clip-path="url(#clip612)" cx="1418.53" cy="1377.47" r="7.2" fill="#009af9" fill-rule="evenodd" fill-opacity="1" stroke="#000000" stroke-opacity="1" stroke-width="3.2"></circle>
<circle clip-path="url(#clip612)" cx="1405.93" cy="1368.57" r="7.2" fill="#009af9" fill-rule="evenodd" fill-opacity="1" stroke="#000000" stroke-opacity="1" stroke-width="3.2"></circle>
<circle clip-path="url(#clip612)" cx="1393.17" cy="1357.14" r="7.2" fill="#009af9" fill-rule="evenodd" fill-opacity="1" stroke="#000000" stroke-opacity="1" stroke-width="3.2"></circle>
<circle clip-path="url(#clip612)" cx="1380.51" cy="1343.84" r="7.2" fill="#009af9" fill-rule="evenodd" fill-opacity="1" stroke="#000000" stroke-opacity="1" stroke-width="3.2"></circle>
<circle clip-path="url(#clip612)" cx="1368.86" cy="1329.94" r="7.2" fill="#009af9" fill-rule="evenodd" fill-opacity="1" stroke="#000000" stroke-opacity="1" stroke-width="3.2"></circle>
<circle clip-path="url(#clip612)" cx="1358.95" cy="1316.48" r="7.2" fill="#009af9" fill-rule="evenodd" fill-opacity="1" stroke="#000000" stroke-opacity="1" stroke-width="3.2"></circle>
<circle clip-path="url(#clip612)" cx="1350.51" cy="1303.49" r="7.2" fill="#009af9" fill-rule="evenodd" fill-opacity="1" stroke="#000000" stroke-opacity="1" stroke-width="3.2"></circle>
<circle clip-path="url(#clip612)" cx="1343.62" cy="1291.01" r="7.2" fill="#009af9" fill-rule="evenodd" fill-opacity="1" stroke="#000000" stroke-opacity="1" stroke-width="3.2"></circle>
<circle clip-path="url(#clip612)" cx="1338.63" cy="1279.06" r="7.2" fill="#009af9" fill-rule="evenodd" fill-opacity="1" stroke="#000000" stroke-opacity="1" stroke-width="3.2"></circle>
<circle clip-path="url(#clip612)" cx="1335.6" cy="1267.61" r="7.2" fill="#009af9" fill-rule="evenodd" fill-opacity="1" stroke="#000000" stroke-opacity="1" stroke-width="3.2"></circle>
<circle clip-path="url(#clip612)" cx="1334.44" cy="1256.85" r="7.2" fill="#009af9" fill-rule="evenodd" fill-opacity="1" stroke="#000000" stroke-opacity="1" stroke-width="3.2"></circle>
<circle clip-path="url(#clip612)" cx="1335.33" cy="1247.07" r="7.2" fill="#009af9" fill-rule="evenodd" fill-opacity="1" stroke="#000000" stroke-opacity="1" stroke-width="3.2"></circle>
<circle clip-path="url(#clip612)" cx="1338.44" cy="1238.41" r="7.2" fill="#009af9" fill-rule="evenodd" fill-opacity="1" stroke="#000000" stroke-opacity="1" stroke-width="3.2"></circle>
<circle clip-path="url(#clip612)" cx="1342.58" cy="1230.61" r="7.2" fill="#009af9" fill-rule="evenodd" fill-opacity="1" stroke="#000000" stroke-opacity="1" stroke-width="3.2"></circle>
<circle clip-path="url(#clip612)" cx="1345.45" cy="1223.03" r="7.2" fill="#009af9" fill-rule="evenodd" fill-opacity="1" stroke="#000000" stroke-opacity="1" stroke-width="3.2"></circle>
<circle clip-path="url(#clip612)" cx="1346.07" cy="1215.43" r="7.2" fill="#009af9" fill-rule="evenodd" fill-opacity="1" stroke="#000000" stroke-opacity="1" stroke-width="3.2"></circle>
<circle clip-path="url(#clip612)" cx="1345.77" cy="1206.93" r="7.2" fill="#009af9" fill-rule="evenodd" fill-opacity="1" stroke="#000000" stroke-opacity="1" stroke-width="3.2"></circle>
<circle clip-path="url(#clip612)" cx="1345.79" cy="1196.61" r="7.2" fill="#009af9" fill-rule="evenodd" fill-opacity="1" stroke="#000000" stroke-opacity="1" stroke-width="3.2"></circle>
<circle clip-path="url(#clip612)" cx="1345.15" cy="1185.77" r="7.2" fill="#009af9" fill-rule="evenodd" fill-opacity="1" stroke="#000000" stroke-opacity="1" stroke-width="3.2"></circle>
<circle clip-path="url(#clip612)" cx="1343.65" cy="1175.73" r="7.2" fill="#009af9" fill-rule="evenodd" fill-opacity="1" stroke="#000000" stroke-opacity="1" stroke-width="3.2"></circle>
<circle clip-path="url(#clip612)" cx="1341.02" cy="1166.41" r="7.2" fill="#009af9" fill-rule="evenodd" fill-opacity="1" stroke="#000000" stroke-opacity="1" stroke-width="3.2"></circle>
<circle clip-path="url(#clip612)" cx="1337.11" cy="1156.75" r="7.2" fill="#009af9" fill-rule="evenodd" fill-opacity="1" stroke="#000000" stroke-opacity="1" stroke-width="3.2"></circle>
<circle clip-path="url(#clip612)" cx="1332.66" cy="1145.54" r="7.2" fill="#009af9" fill-rule="evenodd" fill-opacity="1" stroke="#000000" stroke-opacity="1" stroke-width="3.2"></circle>
<circle clip-path="url(#clip612)" cx="1327.68" cy="1132.41" r="7.2" fill="#009af9" fill-rule="evenodd" fill-opacity="1" stroke="#000000" stroke-opacity="1" stroke-width="3.2"></circle>
<circle clip-path="url(#clip612)" cx="1322.36" cy="1117.5" r="7.2" fill="#009af9" fill-rule="evenodd" fill-opacity="1" stroke="#000000" stroke-opacity="1" stroke-width="3.2"></circle>
<circle clip-path="url(#clip612)" cx="1316.7" cy="1101.33" r="7.2" fill="#009af9" fill-rule="evenodd" fill-opacity="1" stroke="#000000" stroke-opacity="1" stroke-width="3.2"></circle>
<circle clip-path="url(#clip612)" cx="1310.83" cy="1084.13" r="7.2" fill="#009af9" fill-rule="evenodd" fill-opacity="1" stroke="#000000" stroke-opacity="1" stroke-width="3.2"></circle>
<circle clip-path="url(#clip612)" cx="1305.03" cy="1065.67" r="7.2" fill="#009af9" fill-rule="evenodd" fill-opacity="1" stroke="#000000" stroke-opacity="1" stroke-width="3.2"></circle>
<circle clip-path="url(#clip612)" cx="1299.62" cy="1045.53" r="7.2" fill="#009af9" fill-rule="evenodd" fill-opacity="1" stroke="#000000" stroke-opacity="1" stroke-width="3.2"></circle>
<circle clip-path="url(#clip612)" cx="1295.09" cy="1023.49" r="7.2" fill="#009af9" fill-rule="evenodd" fill-opacity="1" stroke="#000000" stroke-opacity="1" stroke-width="3.2"></circle>
<circle clip-path="url(#clip612)" cx="1291.38" cy="999.272" r="7.2" fill="#009af9" fill-rule="evenodd" fill-opacity="1" stroke="#000000" stroke-opacity="1" stroke-width="3.2"></circle>
<circle clip-path="url(#clip612)" cx="1288.16" cy="972.753" r="7.2" fill="#009af9" fill-rule="evenodd" fill-opacity="1" stroke="#000000" stroke-opacity="1" stroke-width="3.2"></circle>
<circle clip-path="url(#clip612)" cx="1285.16" cy="944.188" r="7.2" fill="#009af9" fill-rule="evenodd" fill-opacity="1" stroke="#000000" stroke-opacity="1" stroke-width="3.2"></circle>
<circle clip-path="url(#clip612)" cx="1282.29" cy="915.861" r="7.2" fill="#009af9" fill-rule="evenodd" fill-opacity="1" stroke="#000000" stroke-opacity="1" stroke-width="3.2"></circle>
<circle clip-path="url(#clip612)" cx="1279.46" cy="889.107" r="7.2" fill="#009af9" fill-rule="evenodd" fill-opacity="1" stroke="#000000" stroke-opacity="1" stroke-width="3.2"></circle>
<circle clip-path="url(#clip612)" cx="1276.02" cy="862.834" r="7.2" fill="#009af9" fill-rule="evenodd" fill-opacity="1" stroke="#000000" stroke-opacity="1" stroke-width="3.2"></circle>
<circle clip-path="url(#clip612)" cx="1271.79" cy="836.632" r="7.2" fill="#009af9" fill-rule="evenodd" fill-opacity="1" stroke="#000000" stroke-opacity="1" stroke-width="3.2"></circle>
<circle clip-path="url(#clip612)" cx="1267.16" cy="810.565" r="7.2" fill="#009af9" fill-rule="evenodd" fill-opacity="1" stroke="#000000" stroke-opacity="1" stroke-width="3.2"></circle>
<circle clip-path="url(#clip612)" cx="1262.23" cy="785.174" r="7.2" fill="#009af9" fill-rule="evenodd" fill-opacity="1" stroke="#000000" stroke-opacity="1" stroke-width="3.2"></circle>
<circle clip-path="url(#clip612)" cx="1257.85" cy="760.687" r="7.2" fill="#009af9" fill-rule="evenodd" fill-opacity="1" stroke="#000000" stroke-opacity="1" stroke-width="3.2"></circle>
<circle clip-path="url(#clip612)" cx="1254.89" cy="736.917" r="7.2" fill="#009af9" fill-rule="evenodd" fill-opacity="1" stroke="#000000" stroke-opacity="1" stroke-width="3.2"></circle>
<circle clip-path="url(#clip612)" cx="1253.56" cy="713.695" r="7.2" fill="#009af9" fill-rule="evenodd" fill-opacity="1" stroke="#000000" stroke-opacity="1" stroke-width="3.2"></circle>
<circle clip-path="url(#clip612)" cx="1253.21" cy="690.952" r="7.2" fill="#009af9" fill-rule="evenodd" fill-opacity="1" stroke="#000000" stroke-opacity="1" stroke-width="3.2"></circle>
<circle clip-path="url(#clip612)" cx="1253.2" cy="669.576" r="7.2" fill="#009af9" fill-rule="evenodd" fill-opacity="1" stroke="#000000" stroke-opacity="1" stroke-width="3.2"></circle>
<circle clip-path="url(#clip612)" cx="1253.56" cy="650.473" r="7.2" fill="#009af9" fill-rule="evenodd" fill-opacity="1" stroke="#000000" stroke-opacity="1" stroke-width="3.2"></circle>
<circle clip-path="url(#clip612)" cx="1254.07" cy="632.722" r="7.2" fill="#009af9" fill-rule="evenodd" fill-opacity="1" stroke="#000000" stroke-opacity="1" stroke-width="3.2"></circle>
<circle clip-path="url(#clip612)" cx="1254.72" cy="615.268" r="7.2" fill="#009af9" fill-rule="evenodd" fill-opacity="1" stroke="#000000" stroke-opacity="1" stroke-width="3.2"></circle>
<circle clip-path="url(#clip612)" cx="1255.21" cy="596.926" r="7.2" fill="#009af9" fill-rule="evenodd" fill-opacity="1" stroke="#000000" stroke-opacity="1" stroke-width="3.2"></circle>
<circle clip-path="url(#clip612)" cx="1255.32" cy="576.479" r="7.2" fill="#009af9" fill-rule="evenodd" fill-opacity="1" stroke="#000000" stroke-opacity="1" stroke-width="3.2"></circle>
<circle clip-path="url(#clip612)" cx="1254.14" cy="554.967" r="7.2" fill="#009af9" fill-rule="evenodd" fill-opacity="1" stroke="#000000" stroke-opacity="1" stroke-width="3.2"></circle>
<circle clip-path="url(#clip612)" cx="1250.85" cy="533.623" r="7.2" fill="#009af9" fill-rule="evenodd" fill-opacity="1" stroke="#000000" stroke-opacity="1" stroke-width="3.2"></circle>
<circle clip-path="url(#clip612)" cx="1245.61" cy="512.331" r="7.2" fill="#009af9" fill-rule="evenodd" fill-opacity="1" stroke="#000000" stroke-opacity="1" stroke-width="3.2"></circle>
<circle clip-path="url(#clip612)" cx="1238.57" cy="490.797" r="7.2" fill="#009af9" fill-rule="evenodd" fill-opacity="1" stroke="#000000" stroke-opacity="1" stroke-width="3.2"></circle>
<circle clip-path="url(#clip612)" cx="1229.94" cy="468.667" r="7.2" fill="#009af9" fill-rule="evenodd" fill-opacity="1" stroke="#000000" stroke-opacity="1" stroke-width="3.2"></circle>
<circle clip-path="url(#clip612)" cx="1219.66" cy="445.594" r="7.2" fill="#009af9" fill-rule="evenodd" fill-opacity="1" stroke="#000000" stroke-opacity="1" stroke-width="3.2"></circle>
<circle clip-path="url(#clip612)" cx="1207.59" cy="421.447" r="7.2" fill="#009af9" fill-rule="evenodd" fill-opacity="1" stroke="#000000" stroke-opacity="1" stroke-width="3.2"></circle>
<circle clip-path="url(#clip612)" cx="1193.89" cy="396.485" r="7.2" fill="#009af9" fill-rule="evenodd" fill-opacity="1" stroke="#000000" stroke-opacity="1" stroke-width="3.2"></circle>
<circle clip-path="url(#clip612)" cx="1178.76" cy="371.511" r="7.2" fill="#009af9" fill-rule="evenodd" fill-opacity="1" stroke="#000000" stroke-opacity="1" stroke-width="3.2"></circle>
<circle clip-path="url(#clip612)" cx="1161.76" cy="347.147" r="7.2" fill="#009af9" fill-rule="evenodd" fill-opacity="1" stroke="#000000" stroke-opacity="1" stroke-width="3.2"></circle>
<circle clip-path="url(#clip612)" cx="1143.3" cy="324.516" r="7.2" fill="#009af9" fill-rule="evenodd" fill-opacity="1" stroke="#000000" stroke-opacity="1" stroke-width="3.2"></circle>
<circle clip-path="url(#clip612)" cx="1124.61" cy="304.388" r="7.2" fill="#009af9" fill-rule="evenodd" fill-opacity="1" stroke="#000000" stroke-opacity="1" stroke-width="3.2"></circle>
<circle clip-path="url(#clip612)" cx="1105.95" cy="286.46" r="7.2" fill="#009af9" fill-rule="evenodd" fill-opacity="1" stroke="#000000" stroke-opacity="1" stroke-width="3.2"></circle>
<circle clip-path="url(#clip612)" cx="1087.28" cy="270.727" r="7.2" fill="#009af9" fill-rule="evenodd" fill-opacity="1" stroke="#000000" stroke-opacity="1" stroke-width="3.2"></circle>
<circle clip-path="url(#clip612)" cx="1068.6" cy="256.948" r="7.2" fill="#009af9" fill-rule="evenodd" fill-opacity="1" stroke="#000000" stroke-opacity="1" stroke-width="3.2"></circle>
<circle clip-path="url(#clip612)" cx="1049.83" cy="244.91" r="7.2" fill="#009af9" fill-rule="evenodd" fill-opacity="1" stroke="#000000" stroke-opacity="1" stroke-width="3.2"></circle>
<circle clip-path="url(#clip612)" cx="1030.99" cy="234.863" r="7.2" fill="#009af9" fill-rule="evenodd" fill-opacity="1" stroke="#000000" stroke-opacity="1" stroke-width="3.2"></circle>
<circle clip-path="url(#clip612)" cx="1012.24" cy="227.005" r="7.2" fill="#009af9" fill-rule="evenodd" fill-opacity="1" stroke="#000000" stroke-opacity="1" stroke-width="3.2"></circle>
<circle clip-path="url(#clip612)" cx="993.737" cy="221.283" r="7.2" fill="#009af9" fill-rule="evenodd" fill-opacity="1" stroke="#000000" stroke-opacity="1" stroke-width="3.2"></circle>
<circle clip-path="url(#clip612)" cx="975.631" cy="217.238" r="7.2" fill="#009af9" fill-rule="evenodd" fill-opacity="1" stroke="#000000" stroke-opacity="1" stroke-width="3.2"></circle>
<circle clip-path="url(#clip612)" cx="956.823" cy="213.251" r="7.2" fill="#009af9" fill-rule="evenodd" fill-opacity="1" stroke="#000000" stroke-opacity="1" stroke-width="3.2"></circle>
<circle clip-path="url(#clip612)" cx="937.078" cy="209.12" r="7.2" fill="#009af9" fill-rule="evenodd" fill-opacity="1" stroke="#000000" stroke-opacity="1" stroke-width="3.2"></circle>
<circle clip-path="url(#clip612)" cx="917.405" cy="206.12" r="7.2" fill="#009af9" fill-rule="evenodd" fill-opacity="1" stroke="#000000" stroke-opacity="1" stroke-width="3.2"></circle>
<circle clip-path="url(#clip612)" cx="898.947" cy="203.615" r="7.2" fill="#009af9" fill-rule="evenodd" fill-opacity="1" stroke="#000000" stroke-opacity="1" stroke-width="3.2"></circle>
<circle clip-path="url(#clip612)" cx="882.497" cy="200.85" r="7.2" fill="#009af9" fill-rule="evenodd" fill-opacity="1" stroke="#000000" stroke-opacity="1" stroke-width="3.2"></circle>
<circle clip-path="url(#clip612)" cx="867.923" cy="197.991" r="7.2" fill="#009af9" fill-rule="evenodd" fill-opacity="1" stroke="#000000" stroke-opacity="1" stroke-width="3.2"></circle>
<circle clip-path="url(#clip612)" cx="855.175" cy="194.986" r="7.2" fill="#009af9" fill-rule="evenodd" fill-opacity="1" stroke="#000000" stroke-opacity="1" stroke-width="3.2"></circle>
<circle clip-path="url(#clip612)" cx="844.304" cy="191.869" r="7.2" fill="#009af9" fill-rule="evenodd" fill-opacity="1" stroke="#000000" stroke-opacity="1" stroke-width="3.2"></circle>
<circle clip-path="url(#clip612)" cx="835.767" cy="188.898" r="7.2" fill="#009af9" fill-rule="evenodd" fill-opacity="1" stroke="#000000" stroke-opacity="1" stroke-width="3.2"></circle>
<circle clip-path="url(#clip612)" cx="829.934" cy="186.171" r="7.2" fill="#009af9" fill-rule="evenodd" fill-opacity="1" stroke="#000000" stroke-opacity="1" stroke-width="3.2"></circle>
<circle clip-path="url(#clip612)" cx="827.017" cy="183.487" r="7.2" fill="#009af9" fill-rule="evenodd" fill-opacity="1" stroke="#000000" stroke-opacity="1" stroke-width="3.2"></circle>
<circle clip-path="url(#clip612)" cx="827.097" cy="180.621" r="7.2" fill="#009af9" fill-rule="evenodd" fill-opacity="1" stroke="#000000" stroke-opacity="1" stroke-width="3.2"></circle>
<circle clip-path="url(#clip612)" cx="829.962" cy="177.361" r="7.2" fill="#009af9" fill-rule="evenodd" fill-opacity="1" stroke="#000000" stroke-opacity="1" stroke-width="3.2"></circle>
<circle clip-path="url(#clip612)" cx="835.397" cy="173.408" r="7.2" fill="#009af9" fill-rule="evenodd" fill-opacity="1" stroke="#000000" stroke-opacity="1" stroke-width="3.2"></circle>
<circle clip-path="url(#clip612)" cx="843.467" cy="168.511" r="7.2" fill="#009af9" fill-rule="evenodd" fill-opacity="1" stroke="#000000" stroke-opacity="1" stroke-width="3.2"></circle>
<circle clip-path="url(#clip612)" cx="853.152" cy="163.973" r="7.2" fill="#009af9" fill-rule="evenodd" fill-opacity="1" stroke="#000000" stroke-opacity="1" stroke-width="3.2"></circle>
<circle clip-path="url(#clip612)" cx="863.306" cy="161.248" r="7.2" fill="#009af9" fill-rule="evenodd" fill-opacity="1" stroke="#000000" stroke-opacity="1" stroke-width="3.2"></circle>
<circle clip-path="url(#clip612)" cx="873.782" cy="160.256" r="7.2" fill="#009af9" fill-rule="evenodd" fill-opacity="1" stroke="#000000" stroke-opacity="1" stroke-width="3.2"></circle>
<circle clip-path="url(#clip612)" cx="884.616" cy="160.929" r="7.2" fill="#009af9" fill-rule="evenodd" fill-opacity="1" stroke="#000000" stroke-opacity="1" stroke-width="3.2"></circle>
<circle clip-path="url(#clip612)" cx="896.062" cy="163.714" r="7.2" fill="#009af9" fill-rule="evenodd" fill-opacity="1" stroke="#000000" stroke-opacity="1" stroke-width="3.2"></circle>
<circle clip-path="url(#clip612)" cx="908.079" cy="169.026" r="7.2" fill="#009af9" fill-rule="evenodd" fill-opacity="1" stroke="#000000" stroke-opacity="1" stroke-width="3.2"></circle>
<circle clip-path="url(#clip612)" cx="920.47" cy="174.88" r="7.2" fill="#009af9" fill-rule="evenodd" fill-opacity="1" stroke="#000000" stroke-opacity="1" stroke-width="3.2"></circle>
<circle clip-path="url(#clip612)" cx="933.122" cy="178.898" r="7.2" fill="#009af9" fill-rule="evenodd" fill-opacity="1" stroke="#000000" stroke-opacity="1" stroke-width="3.2"></circle>
<circle clip-path="url(#clip612)" cx="946.111" cy="180.328" r="7.2" fill="#009af9" fill-rule="evenodd" fill-opacity="1" stroke="#000000" stroke-opacity="1" stroke-width="3.2"></circle>
<circle clip-path="url(#clip612)" cx="959.754" cy="178.652" r="7.2" fill="#009af9" fill-rule="evenodd" fill-opacity="1" stroke="#000000" stroke-opacity="1" stroke-width="3.2"></circle>
<circle clip-path="url(#clip612)" cx="974.119" cy="174.101" r="7.2" fill="#009af9" fill-rule="evenodd" fill-opacity="1" stroke="#000000" stroke-opacity="1" stroke-width="3.2"></circle>
<circle clip-path="url(#clip612)" cx="988.771" cy="169.369" r="7.2" fill="#009af9" fill-rule="evenodd" fill-opacity="1" stroke="#000000" stroke-opacity="1" stroke-width="3.2"></circle>
<circle clip-path="url(#clip612)" cx="1003.38" cy="166.898" r="7.2" fill="#009af9" fill-rule="evenodd" fill-opacity="1" stroke="#000000" stroke-opacity="1" stroke-width="3.2"></circle>
<circle clip-path="url(#clip612)" cx="1017.8" cy="166.657" r="7.2" fill="#009af9" fill-rule="evenodd" fill-opacity="1" stroke="#000000" stroke-opacity="1" stroke-width="3.2"></circle>
<circle clip-path="url(#clip612)" cx="1032.09" cy="168.57" r="7.2" fill="#009af9" fill-rule="evenodd" fill-opacity="1" stroke="#000000" stroke-opacity="1" stroke-width="3.2"></circle>
<circle clip-path="url(#clip612)" cx="1046.59" cy="173.012" r="7.2" fill="#009af9" fill-rule="evenodd" fill-opacity="1" stroke="#000000" stroke-opacity="1" stroke-width="3.2"></circle>
<circle clip-path="url(#clip612)" cx="1061.75" cy="180.132" r="7.2" fill="#009af9" fill-rule="evenodd" fill-opacity="1" stroke="#000000" stroke-opacity="1" stroke-width="3.2"></circle>
<circle clip-path="url(#clip612)" cx="1077.61" cy="189.666" r="7.2" fill="#009af9" fill-rule="evenodd" fill-opacity="1" stroke="#000000" stroke-opacity="1" stroke-width="3.2"></circle>
<circle clip-path="url(#clip612)" cx="1094.8" cy="200.443" r="7.2" fill="#009af9" fill-rule="evenodd" fill-opacity="1" stroke="#000000" stroke-opacity="1" stroke-width="3.2"></circle>
<circle clip-path="url(#clip612)" cx="1113.05" cy="210.517" r="7.2" fill="#009af9" fill-rule="evenodd" fill-opacity="1" stroke="#000000" stroke-opacity="1" stroke-width="3.2"></circle>
<circle clip-path="url(#clip612)" cx="1131.68" cy="220.906" r="7.2" fill="#009af9" fill-rule="evenodd" fill-opacity="1" stroke="#000000" stroke-opacity="1" stroke-width="3.2"></circle>
<circle clip-path="url(#clip612)" cx="1150.94" cy="233.328" r="7.2" fill="#009af9" fill-rule="evenodd" fill-opacity="1" stroke="#000000" stroke-opacity="1" stroke-width="3.2"></circle>
<circle clip-path="url(#clip612)" cx="1170.55" cy="247.465" r="7.2" fill="#009af9" fill-rule="evenodd" fill-opacity="1" stroke="#000000" stroke-opacity="1" stroke-width="3.2"></circle>
<circle clip-path="url(#clip612)" cx="1190.17" cy="263.14" r="7.2" fill="#009af9" fill-rule="evenodd" fill-opacity="1" stroke="#000000" stroke-opacity="1" stroke-width="3.2"></circle>
<circle clip-path="url(#clip612)" cx="1209.91" cy="280.546" r="7.2" fill="#009af9" fill-rule="evenodd" fill-opacity="1" stroke="#000000" stroke-opacity="1" stroke-width="3.2"></circle>
<circle clip-path="url(#clip612)" cx="1229.72" cy="300.102" r="7.2" fill="#009af9" fill-rule="evenodd" fill-opacity="1" stroke="#000000" stroke-opacity="1" stroke-width="3.2"></circle>
<circle clip-path="url(#clip612)" cx="1249.25" cy="321.856" r="7.2" fill="#009af9" fill-rule="evenodd" fill-opacity="1" stroke="#000000" stroke-opacity="1" stroke-width="3.2"></circle>
<circle clip-path="url(#clip612)" cx="1268.52" cy="345.63" r="7.2" fill="#009af9" fill-rule="evenodd" fill-opacity="1" stroke="#000000" stroke-opacity="1" stroke-width="3.2"></circle>
<circle clip-path="url(#clip612)" cx="1288.3" cy="370.188" r="7.2" fill="#009af9" fill-rule="evenodd" fill-opacity="1" stroke="#000000" stroke-opacity="1" stroke-width="3.2"></circle>
<circle clip-path="url(#clip612)" cx="1309.15" cy="394.124" r="7.2" fill="#009af9" fill-rule="evenodd" fill-opacity="1" stroke="#000000" stroke-opacity="1" stroke-width="3.2"></circle>
<circle clip-path="url(#clip612)" cx="1330.99" cy="417.502" r="7.2" fill="#009af9" fill-rule="evenodd" fill-opacity="1" stroke="#000000" stroke-opacity="1" stroke-width="3.2"></circle>
<circle clip-path="url(#clip612)" cx="1353.79" cy="440.884" r="7.2" fill="#009af9" fill-rule="evenodd" fill-opacity="1" stroke="#000000" stroke-opacity="1" stroke-width="3.2"></circle>
<circle clip-path="url(#clip612)" cx="1376.68" cy="463.691" r="7.2" fill="#009af9" fill-rule="evenodd" fill-opacity="1" stroke="#000000" stroke-opacity="1" stroke-width="3.2"></circle>
<circle clip-path="url(#clip612)" cx="1399.03" cy="485.035" r="7.2" fill="#009af9" fill-rule="evenodd" fill-opacity="1" stroke="#000000" stroke-opacity="1" stroke-width="3.2"></circle>
<circle clip-path="url(#clip612)" cx="1421.11" cy="504.807" r="7.2" fill="#009af9" fill-rule="evenodd" fill-opacity="1" stroke="#000000" stroke-opacity="1" stroke-width="3.2"></circle>
<circle clip-path="url(#clip612)" cx="1443.34" cy="523.059" r="7.2" fill="#009af9" fill-rule="evenodd" fill-opacity="1" stroke="#000000" stroke-opacity="1" stroke-width="3.2"></circle>
<circle clip-path="url(#clip612)" cx="1466.1" cy="539.71" r="7.2" fill="#009af9" fill-rule="evenodd" fill-opacity="1" stroke="#000000" stroke-opacity="1" stroke-width="3.2"></circle>
<circle clip-path="url(#clip612)" cx="1489.18" cy="554.189" r="7.2" fill="#009af9" fill-rule="evenodd" fill-opacity="1" stroke="#000000" stroke-opacity="1" stroke-width="3.2"></circle>
<circle clip-path="url(#clip612)" cx="1512.11" cy="566.202" r="7.2" fill="#009af9" fill-rule="evenodd" fill-opacity="1" stroke="#000000" stroke-opacity="1" stroke-width="3.2"></circle>
<circle clip-path="url(#clip612)" cx="1534.57" cy="575.722" r="7.2" fill="#009af9" fill-rule="evenodd" fill-opacity="1" stroke="#000000" stroke-opacity="1" stroke-width="3.2"></circle>
<circle clip-path="url(#clip612)" cx="1555.55" cy="583.773" r="7.2" fill="#009af9" fill-rule="evenodd" fill-opacity="1" stroke="#000000" stroke-opacity="1" stroke-width="3.2"></circle>
<circle clip-path="url(#clip612)" cx="1574.06" cy="591.415" r="7.2" fill="#009af9" fill-rule="evenodd" fill-opacity="1" stroke="#000000" stroke-opacity="1" stroke-width="3.2"></circle>
<circle clip-path="url(#clip612)" cx="1590.12" cy="598.675" r="7.2" fill="#009af9" fill-rule="evenodd" fill-opacity="1" stroke="#000000" stroke-opacity="1" stroke-width="3.2"></circle>
</svg>